<svg width="416" height="346" viewBox="0 0 416 346" fill="none" xmlns="http://www.w3.org/2000/svg">
<path d="M11.4639 252.123C47.5194 335.202 157.635 354.216 231.757 335.526C246.31 331.857 349.678 303.908 372.273 205.889C388.135 137.079 356.649 66.4543 303.375 29.1102C228.811 -23.1574 131.667 3.8595 75.8294 50.8677C25.2994 93.4076 -21.0264 177.259 11.4639 252.123Z" fill="#E1E8FF"/>
<path d="M161.899 80.7306C161.496 80.7306 161.099 80.7503 160.698 80.761C156.077 61.215 138.528 46.666 117.57 46.666C103.062 46.666 90.1831 53.6368 82.096 64.4104C75.5335 61.7572 68.3625 60.2928 60.849 60.2928C29.5227 60.2928 4.12793 85.6875 4.12793 117.014C4.12793 148.34 29.5227 173.735 60.849 173.735C68.8737 173.735 76.5074 172.065 83.4264 169.059C90.4937 176.753 100.635 181.579 111.906 181.579C124.897 181.579 136.382 175.166 143.394 165.34C149.027 167.933 155.292 169.389 161.899 169.389C186.382 169.389 206.229 149.542 206.229 125.06C206.229 100.578 186.382 80.7306 161.899 80.7306ZM255.214 148.687C255.532 148.687 255.846 148.672 256.162 148.663C259.815 164.11 273.683 175.608 290.246 175.608C301.712 175.608 311.89 170.1 318.281 161.585C323.468 163.682 329.135 164.839 335.073 164.839C359.83 164.839 379.899 144.77 379.899 120.013C379.899 95.2563 359.829 75.1872 335.073 75.1872C328.731 75.1872 322.698 76.5069 317.23 78.8825C311.645 72.8019 303.63 68.9883 294.723 68.9883C284.456 68.9883 275.38 74.0564 269.839 81.8216C265.387 79.7726 260.436 78.6217 255.214 78.6217C235.866 78.6217 220.181 94.3065 220.181 113.655C220.181 133.003 235.865 148.687 255.214 148.687Z" fill="white"/>
<path d="M97.528 258.676L70.5977 345.898H102.848L97.528 258.676Z" fill="#E4ECF7"/>
<path d="M397.888 345.898C377.124 329.677 359.426 316.401 346.313 306.719C299.122 271.876 232.989 225.747 181.711 221.951C174.623 221.427 168.764 221.781 167.489 221.863C154.474 222.703 123.587 224.696 104.665 247.749C73.819 285.326 101.663 343.401 102.848 345.897H397.888V345.898Z" fill="#7895FF"/>
<path opacity="0.5" d="M397.888 345.898C377.124 329.677 359.426 316.401 346.313 306.719C299.122 271.876 232.989 225.747 181.711 221.951C174.623 221.427 168.764 221.781 167.489 221.863C154.474 222.703 123.587 224.696 104.665 247.749C73.819 285.326 101.663 343.401 102.848 345.897H397.888V345.898Z" fill="white"/>
<path opacity="0.5" d="M136.076 278.037L200.897 345.898H238.509L153.744 278.037H136.076Z" fill="#0B4870"/>
<path opacity="0.5" d="M185.028 278.037L273.822 345.898H311.434L202.696 278.037H185.028Z" fill="#0B4870"/>
<path opacity="0.5" d="M200.897 240.266L314.819 324.058C314.819 324.058 345.144 316.79 369.499 324.058L205.679 240.266H200.897Z" fill="#0B4870"/>
<path d="M173.587 135.223C174.196 134.369 175.1 133.011 176.01 131.243C177.703 127.952 180.31 122.883 178.266 119.78C177.947 119.297 177.34 118.593 176.11 118.035C176.022 118.311 175.885 118.736 175.716 119.255C173.175 127.052 172.203 128.763 172.48 131.504C172.571 132.397 172.823 133.692 173.587 135.223Z" fill="#0B4870"/>
<path d="M173.141 131.76C171.501 137.636 163.588 137.929 163.588 137.929L173.141 131.76ZM164.483 140.641C164.483 140.641 154.757 143.961 152.751 145.237C152.751 145.237 166.012 159.219 185.401 144.747C183.858 143.794 183.582 143.756 181.49 142.842C178.79 141.661 174.979 140.07 172.835 139.558L164.483 140.641Z" fill="#EFB68F"/>
<path d="M164.062 137.892L164.679 141.924L173.141 141.591L174.477 131.109H172.449L164.062 137.892Z" fill="#EFB68F"/>
<path d="M176.611 128.668C176.275 129.71 175.51 130.585 174.477 131.11C171.544 132.566 170.863 128.842 172.129 127.147C173.636 125.128 177.505 125.868 176.611 128.668Z" fill="#EFB68F"/>
<path d="M162.854 141.39C162.854 141.39 168.014 147.799 175.724 140.482C176.999 140.587 178.37 141.299 180.053 141.772C182.268 142.395 184.062 143.248 185.4 144.012L184.382 190.461H155.572L152.475 145.398C153.643 144.747 155.013 143.652 156.58 143.056C158.919 142.166 161.068 141.671 162.854 141.39Z" fill="#7895FF"/>
<path d="M186.193 205.244C184.088 208.354 181.952 209.332 180.613 209.694C180.2 209.807 178.88 209.839 176.244 209.954C174.213 210.042 172.099 210.088 169.875 210.083C168.589 210.08 167.326 210.06 166.088 210.025C162.17 209.913 160.211 209.879 159.449 209.683C158.046 209.323 155.58 208.24 153.208 204.255C153.97 199.657 154.733 195.059 155.495 190.461H184.362C184.972 195.388 185.583 200.316 186.193 205.244Z" fill="#0B4870"/>
<path d="M192.96 272.855L190.674 258.676L185.028 259.444L187.302 273.607L192.96 272.855Z" fill="#7895FF"/>
<path d="M186.404 272.425L185.4 276.871H203.068V276.741C203.068 275.717 202.479 274.784 201.554 274.344L193.355 271.072C193.06 270.931 192.681 270.937 192.456 271.174C191.397 272.293 190.233 274.114 186.998 272.138C186.763 271.995 186.456 272.154 186.404 272.425Z" fill="#0B4870"/>
<path d="M203.068 276.871H185.4V278.038H203.068V276.871Z" fill="#7895FF"/>
<path d="M177.648 232.894L189.142 231.375L185.978 203.338C185.536 199.417 181.962 196.623 178.049 197.14C176.956 197.509 175.055 198.312 173.232 200.038C171.183 201.979 170.268 204.106 169.876 205.223C172.466 214.447 175.057 223.67 177.648 232.894Z" fill="#0B4870"/>
<path d="M183.813 267.303L193.484 266.025L188.105 221.739C187.686 218.299 184.54 215.862 181.104 216.316C177.618 216.777 175.204 220.028 175.771 223.498L183.813 267.303Z" fill="#0B4870"/>
<path d="M146.576 272.855L148.862 258.676L154.508 259.444L152.234 273.607L146.576 272.855Z" fill="#7895FF"/>
<path d="M161.634 232.894L150.395 231.375L153.304 203.338C153.746 199.417 157.32 196.623 161.233 197.14C161.451 197.169 162.219 197.282 163.151 197.693C163.151 197.693 164.926 198.486 166.05 200.038C167.294 201.755 167.34 203.859 167.216 205.538C166.913 209.628 164.968 219.696 161.634 232.894Z" fill="#0B4870"/>
<path d="M155.724 267.303L146.053 266.025L151.431 221.739C151.851 218.299 154.997 215.862 158.433 216.316C161.918 216.777 164.332 220.028 163.766 223.498L155.724 267.303Z" fill="#0B4870"/>
<path d="M182.585 187.873C183.379 187.609 183.828 187.784 183.828 187.784C184.28 187.149 185.116 187.068 185.659 187.607L186.044 187.989C186.546 188.487 186.612 189.337 186.194 189.925L186.17 189.959C186.17 189.959 185.43 191.951 183.754 193.748C181.589 196.069 179.613 196.024 179.02 195.219C178.459 194.458 180.885 191.578 181.774 190.497L180.401 190.939C180.226 190.995 180.04 190.918 179.94 190.749C179.832 190.567 179.852 190.326 179.988 190.17L181.066 188.931C181.487 188.446 182.004 188.066 182.585 187.873Z" fill="#EFB68F"/>
<path d="M184.445 187.314L195.673 168.384C196.655 166.754 198.699 166.466 200.012 167.773C201.198 168.954 201.316 170.981 200.274 172.322L186.457 189.227L184.445 187.314Z" fill="#EFB68F"/>
<path d="M187.788 147.11C190.588 150.888 194.393 154.851 199.962 165.259C200.552 166.362 201.635 168.45 201.08 170.523C200.823 171.484 200.29 172.151 199.88 172.562C199.309 172.479 198.41 172.264 197.435 171.654C196.19 170.875 195.447 169.843 195.083 169.259C190.036 163.173 184.99 157.086 179.943 151C178.55 149.188 178.753 146.458 180.385 145.036C181.905 143.712 186.518 145.398 187.788 147.11Z" fill="#EFB68F"/>
<path d="M176.635 141.078C178.512 141.31 180.781 141.812 183.19 142.875C190.525 146.112 194.099 152.313 195.362 154.819C193.142 157.632 190.922 160.445 188.702 163.259C187.631 162.334 186.106 160.94 184.423 159.102C181.656 156.078 179.253 153.454 177.813 149.541C177.187 147.84 176.398 144.96 176.635 141.078Z" fill="#7895FF"/>
<path d="M157.058 187.873C156.268 187.609 155.821 187.784 155.821 187.784C155.372 187.149 154.541 187.068 154.001 187.607L153.619 187.989C153.12 188.487 153.054 189.337 153.469 189.925L153.493 189.959C153.493 189.959 154.229 191.951 155.895 193.748C158.047 196.069 160.012 196.024 160.602 195.219C161.159 194.458 158.748 191.578 157.864 190.497L159.229 190.939C159.402 190.995 159.588 190.918 159.688 190.749C159.795 190.567 159.775 190.326 159.639 190.17L158.568 188.931C158.148 188.446 157.635 188.066 157.058 187.873Z" fill="#EFB68F"/>
<path d="M155.208 187.314L144.045 168.384C143.069 166.754 141.037 166.466 139.732 167.773C138.552 168.954 138.436 170.981 139.471 172.322L153.208 189.227L155.208 187.314Z" fill="#EFB68F"/>
<path d="M151.885 147.11C149.101 150.888 145.318 154.851 139.781 165.259C139.195 166.362 138.118 168.45 138.669 170.523C138.925 171.484 139.454 172.151 139.862 172.562C140.43 172.479 141.324 172.264 142.294 171.654C143.531 170.875 144.27 169.843 144.631 169.259C149.649 163.173 154.667 157.086 159.684 151C161.069 149.188 160.868 146.458 159.244 145.036C157.734 143.712 153.147 145.398 151.885 147.11Z" fill="#EFB68F"/>
<path d="M162.987 141.078C161.12 141.306 158.848 141.805 156.432 142.875C149.284 146.041 145.774 152.037 144.52 154.488C146.777 157.697 149.035 160.906 151.293 164.115C152.232 163.251 153.588 161.934 155.083 160.202C157.508 157.392 160.25 154.215 161.808 149.541C162.403 147.759 163.121 144.87 162.987 141.078Z" fill="#7895FF"/>
<path d="M152.74 272.425L153.744 276.871H136.076V276.741C136.076 275.717 136.665 274.784 137.59 274.344L145.789 271.072C146.084 270.931 146.463 270.937 146.688 271.174C147.748 272.293 148.911 274.114 152.146 272.138C152.381 271.995 152.688 272.154 152.74 272.425Z" fill="#0B4870"/>
<path d="M136.077 278.037H153.744V276.871H136.077V278.037Z" fill="#7895FF"/>
<path d="M164.062 137.892C164.388 138.363 164.863 138.859 165.531 139.038C167.628 139.601 170.02 136.608 170.981 135.405C172.002 134.127 172.681 132.851 173.141 131.76C172.682 132.501 172.08 133.315 164.062 137.892Z" fill="#E0A882"/>
<path d="M174.371 118.03C171.206 114.156 164.161 113.459 160.664 116.513C159.078 117.898 158.649 119.683 158.016 122.316C157.823 123.12 156.464 129.15 159.469 134.704C160.633 136.854 161.644 137.442 162.349 137.688C163.771 138.184 165.127 137.681 166.379 137.246C168.916 136.366 170.468 134.763 171.036 134.163C173.751 131.294 178.534 123.125 174.371 118.03Z" fill="#EFB68F"/>
<path d="M170.113 120.298C170.113 120.298 174.786 122.114 172.652 128.085L174.242 128.3C174.242 128.3 174.583 125.936 176.659 126.292C176.659 126.292 178.34 117.988 174.104 115.969L170.113 120.298Z" fill="#0B4870"/>
<path d="M170.114 120.299C170.114 120.299 164.644 116.602 160.126 118.838C159.633 118.719 158.499 118.369 157.662 117.325C156.547 115.935 156.414 113.884 157.298 112.066C157.298 112.066 158.142 112.401 159.243 112.66C160.797 113.026 162.023 112.859 162.724 112.803C164.246 112.681 167.082 112.454 169.083 112.88C170.401 113.161 172.186 113.901 174.105 115.969C175.275 117.065 175.367 118.896 174.356 120.069C173.298 121.297 171.359 121.427 170.114 120.299Z" fill="#0B4870"/>
<path d="M160.126 118.837C160.126 118.837 158.614 120.81 157.73 125.006C157.73 125.006 158.127 118.454 159.619 118.123C161.111 117.792 160.126 118.837 160.126 118.837Z" fill="#0B4870"/>
</svg>
