<svg width="414" height="309" viewBox="0 0 414 309" fill="none" xmlns="http://www.w3.org/2000/svg">
<g clip-path="url(#clip0)">
<path opacity="0.13" d="M94.6454 277.202C94.6454 277.202 -11.1367 210.167 8.23946 122.513C27.6156 34.8583 168.785 146.502 173.398 77.3016C178.011 8.10108 328.3 28.0307 327.445 124.358C326.589 220.685 351.474 183.177 360.701 166.224C369.927 149.27 428.979 174.182 400.376 220.316C371.772 266.45 308.108 305.202 218.609 261.836C129.109 218.471 171.825 304.561 94.6454 277.202Z" fill="#2A94F4"/>
<path opacity="0.13" d="M248.281 308.433C299.111 308.433 340.318 303.316 340.318 297.005C340.318 290.693 299.111 285.576 248.281 285.576C197.45 285.576 156.244 290.693 156.244 297.005C156.244 303.316 197.45 308.433 248.281 308.433Z" fill="#2A94F4"/>
<path opacity="0.13" d="M108.396 304.676C128.235 304.676 144.317 301.242 144.317 297.005C144.317 292.768 128.235 289.334 108.396 289.334C88.5578 289.334 72.4756 292.768 72.4756 297.005C72.4756 301.242 88.5578 304.676 108.396 304.676Z" fill="#2A94F4"/>
<path d="M253.667 297.004C306.683 297.004 349.661 254.027 349.661 201.011C349.661 147.995 306.683 105.018 253.667 105.018C200.652 105.018 157.674 147.995 157.674 201.011C157.674 254.027 200.652 297.004 253.667 297.004Z" fill="#0B4870"/>
<path d="M137.106 157.035C137.106 157.035 164.162 151.541 168.349 163.919C172.535 176.296 170.721 185.857 170.721 185.857C171.279 192.142 168.069 201.442 165.278 199.116C162.487 196.79 161.928 192.487 164.999 188.335C168.069 184.182 164.367 174.227 162.413 167.415C160.459 160.603 139.755 163.919 139.755 163.919L137.106 157.035ZM98.4152 184.494C98.4152 184.494 85.0547 195.68 76.3548 199.719C67.6549 203.758 54.9157 206.244 54.9157 206.244C54.9157 206.244 48.0801 208.419 46.2158 216.187C46.2158 216.187 46.2158 220.226 51.4978 216.187C56.78 212.148 57.0907 209.041 62.994 208.419C68.8973 207.797 93.3838 201.434 103.896 191.045C103.896 191.045 103.309 181.931 98.4152 184.494Z" fill="#FFE3CA"/>
<path d="M109.462 289.372C109.462 289.372 105.545 292.933 101.13 292.933C96.7139 292.933 96.249 295.722 96.249 295.722L107.641 296.884C107.641 296.884 110.659 295.025 111.821 296.884L111.588 297.552L114.784 298.133C114.784 298.133 115.685 294.88 115.22 293.369C114.755 291.858 114.029 290.377 114.029 290.377L109.286 289.333L109.462 289.372ZM207.283 250.861C207.283 250.861 211.763 253.426 212.968 257.466C214.172 261.506 216.971 261.134 216.971 261.134L214.978 250.38C214.978 250.38 212.373 248.151 213.838 246.556L214.542 246.578L214.227 243.488C214.227 243.488 210.863 243.594 209.542 244.451C208.221 245.308 206.999 246.395 206.999 246.395V250.544" fill="#0E538C"/>
<path d="M145.479 193.326C145.479 193.326 152.47 194.569 158.684 206.376C164.898 218.183 166.763 235.894 166.763 235.894C166.763 235.894 187.425 241.797 207 246.458V250.808C207 250.808 174.064 249.254 162.879 247.39C151.693 245.526 152.47 219.115 143.77 221.756C138.41 223.383 131.186 245.526 126.836 252.361C122.486 259.197 116.117 291.822 116.117 291.822L108.349 290.113C108.349 290.113 114.534 255.006 117.049 246.458C119.379 238.534 130.564 206.997 130.564 206.997L145.479 193.326Z" fill="#2A94F4"/>
<path d="M108.395 165.285C108.395 165.285 102.402 176.005 104.249 178.335C106.095 180.665 126.696 217.983 126.696 217.983C126.696 217.983 157.829 210.96 158.994 200.24C158.994 200.24 129.529 160.391 124.804 160.158C120.078 159.925 114.485 160.275 114.485 160.275C114.485 160.275 109.967 162.242 108.395 165.285Z" fill="#0E538C"/>
<path d="M113.902 153.05C113.902 153.05 113.786 157.594 118.563 160.391C118.563 160.391 120.835 167.09 110.931 167.323C110.931 167.323 103.299 157.594 104.348 153.866C105.397 150.137 113.902 153.05 113.902 153.05Z" fill="#FCD2B1"/>
<path d="M106.951 159.46C102.489 159.46 98.8721 155.843 98.8721 151.381V144.707C98.8721 140.156 102.561 136.467 107.113 136.467C111.663 136.467 117.282 140.577 117.282 145.128L117.92 151.968L115.353 151.057C115.353 155.698 111.591 159.46 106.951 159.46Z" fill="#FFE3CA"/>
<path d="M111.165 140.526C111.165 140.526 110.278 145.477 115.353 146.643C115.353 146.643 117.92 145.303 117.282 149.206C116.828 151.987 115.353 151.058 115.353 151.058L114.272 155.18C114.272 155.18 119.013 152.585 118.789 149.206C118.564 145.827 118.331 135.341 112.039 134.525C105.747 133.71 99.1056 135.341 98.2899 133.826C98.2899 133.826 96.954 135.708 98.2899 138.487C98.2899 138.487 96.4256 138.603 96.4256 137.671C96.4256 137.671 95.7264 141.956 98.8725 144.707C98.8725 144.707 100.471 139.67 104.25 139.652C104.25 139.652 106.592 140.438 106.533 141.662C106.533 141.662 110.649 144.203 111.165 140.526Z" fill="#0B4870"/>
<path d="M107.322 167.324C107.322 167.324 92.0363 185.667 91.7256 189.031C91.7256 189.031 97.6292 198.609 98.8719 198.609C100.115 198.609 111.519 180.898 111.519 180.898L107.322 167.324ZM118.563 160.391C118.563 160.391 133.05 154.628 141.129 155.179L145.168 165.673L131.866 170.023L118.563 160.391ZM314.644 147.963C315.727 148.545 367.693 256.087 240.303 280.988C240.303 280.988 320.057 283.153 334.492 232.269C346.055 191.511 314.644 147.963 314.644 147.963ZM279.249 130.905L274.973 129.64C264.591 126.569 258.665 115.663 261.737 105.281L264.989 94.2871L306.861 106.675L303.609 117.669C300.537 128.05 289.631 133.976 279.249 130.905Z" fill="#0E538C"/>
<path d="M306.775 106.443C307.265 104.787 298.328 100.683 286.814 97.2762C275.299 93.8696 265.568 92.4506 265.078 94.1067C264.588 95.7629 273.525 99.8671 285.039 103.274C296.554 106.68 306.285 108.099 306.775 106.443Z" fill="#0B4870"/>
<path d="M284.659 100.687C284.659 100.687 290.734 56.5392 335.723 52.4492L335.122 54.2537C335.122 54.2537 297.47 54.9753 286.764 100.687H284.659Z" fill="#F2F2F2"/>
<path d="M313.969 37.3547L326.311 50.8067L312.827 70.7512L337.521 66.9183L350.788 100.268L355.987 60.4099L378.66 75.5834L360.264 49.3788C360.264 49.3788 381.147 32.4704 381.55 32.2141C381.952 31.9579 350.577 35.0655 350.577 35.0655L348.596 0.613281L338.822 32.5892L324.264 14.1819C324.264 14.1819 336.271 43.0748 337.049 43.4091C337.828 43.7437 313.969 37.3547 313.969 37.3547Z" fill="url(#paint0_linear)"/>
</g>
<defs>
<linearGradient id="paint0_linear" x1="381.554" y1="0.613284" x2="294.005" y2="67.139" gradientUnits="userSpaceOnUse">
<stop stop-color="#D665FF"/>
<stop offset="1" stop-color="#4C6FFF"/>
</linearGradient>
<clipPath id="clip0">
<rect width="413.277" height="307.82" fill="white" transform="translate(0.361328 0.613281)"/>
</clipPath>
</defs>
</svg>
