<svg width="426" height="282" viewBox="0 0 426 282" fill="none" xmlns="http://www.w3.org/2000/svg">
<path d="M238.467 215.11L322.325 43.0918L239.293 2.61425L155.435 174.633L238.467 215.11Z" fill="#E1E8FF"/>
<path d="M238.467 215.11L322.325 43.0918L239.293 2.61425L155.435 174.633L238.467 215.11Z" stroke="#474747" stroke-width="3.81329" stroke-miterlimit="10" stroke-linecap="round" stroke-linejoin="round"/>
<path d="M245.222 117.232C257.266 117.232 267.03 107.469 267.03 95.4248C267.03 83.3808 257.266 73.6172 245.222 73.6172C233.178 73.6172 223.415 83.3808 223.415 95.4248C223.415 107.469 233.178 117.232 245.222 117.232Z" fill="#E1E8FF"/>
<path d="M245.222 117.232C257.266 117.232 267.03 107.469 267.03 95.4248C267.03 83.3808 257.266 73.6172 245.222 73.6172C233.178 73.6172 223.415 83.3808 223.415 95.4248C223.415 107.469 233.178 117.232 245.222 117.232Z" stroke="#474747" stroke-width="3.81329" stroke-miterlimit="10" stroke-linecap="round" stroke-linejoin="round"/>
<path d="M292.806 139.279C304.85 139.279 314.613 129.516 314.613 117.472C314.613 105.428 304.85 95.6641 292.806 95.6641C280.762 95.6641 270.998 105.428 270.998 117.472C270.998 129.516 280.762 139.279 292.806 139.279Z" fill="#E1E8FF"/>
<path d="M292.806 139.279C304.85 139.279 314.613 129.516 314.613 117.472C314.613 105.428 304.85 95.6641 292.806 95.6641C280.762 95.6641 270.998 105.428 270.998 117.472C270.998 129.516 280.762 139.279 292.806 139.279Z" stroke="#474747" stroke-width="3.81329" stroke-miterlimit="10" stroke-linecap="round" stroke-linejoin="round"/>
<path opacity="0.15" d="M2.6333 279.584H423.367" stroke="#474747" stroke-width="3.81329" stroke-miterlimit="10" stroke-linecap="round" stroke-linejoin="round"/>
<path d="M250.762 279.587H117.297C96.2363 279.587 79.1636 262.515 79.1636 241.455V91.465C79.1636 70.4048 96.2363 53.332 117.297 53.332H250.762C271.822 53.332 288.895 70.4048 288.895 91.465V241.455C288.895 262.515 271.822 279.587 250.762 279.587Z" fill="#E1E8FF"/>
<path d="M250.762 279.587H117.297C96.2363 279.587 79.1636 262.515 79.1636 241.455V91.465C79.1636 70.4048 96.2363 53.332 117.297 53.332H250.762C271.822 53.332 288.895 70.4048 288.895 91.465V241.455C288.895 262.515 271.822 279.587 250.762 279.587Z" fill="#E1E8FF"/>
<path d="M250.762 271.885H117.297C96.2363 271.885 79.1636 254.812 79.1636 233.752V241.455C79.1636 262.515 96.2363 279.588 117.297 279.588H250.762C271.822 279.588 288.895 262.515 288.895 241.455V233.752C288.895 254.812 271.822 271.885 250.762 271.885Z" fill="url(#paint0_linear)"/>
<path d="M250.762 53.332H117.297C96.2363 53.332 79.1636 69.0186 79.1636 88.3692V96.5449C79.1636 77.1944 96.2363 61.5077 117.297 61.5077H250.762C271.822 61.5077 288.895 77.1944 288.895 96.5449V88.3692C288.895 69.0193 271.822 53.332 250.762 53.332Z" fill="#3754DB"/>
<path opacity="0.3" d="M206.273 146.425H171.954C165.636 146.425 160.514 141.303 160.514 134.985V64.7719C160.514 58.4539 165.636 53.332 171.954 53.332H217.713V134.985C217.713 141.303 212.591 146.425 206.273 146.425Z" fill="#474747" stroke="#474747" stroke-width="3.81329" stroke-miterlimit="10" stroke-linecap="round" stroke-linejoin="round"/>
<path d="M250.762 279.587H117.297C96.2363 279.587 79.1636 262.515 79.1636 241.455V91.465C79.1636 70.4048 96.2363 53.332 117.297 53.332H250.762C271.822 53.332 288.895 70.4048 288.895 91.465V241.455C288.895 262.515 271.822 279.587 250.762 279.587Z" stroke="#474747" stroke-width="3.81329" stroke-miterlimit="10" stroke-linecap="round" stroke-linejoin="round"/>
<path opacity="0.46" d="M93.1458 240.485V92.436C93.1458 79.0977 103.958 68.2852 117.297 68.2852H250.762C264.1 68.2852 274.913 79.0977 274.913 92.436V240.485C274.913 253.823 264.1 264.636 250.762 264.636H117.297C103.958 264.636 93.1458 253.823 93.1458 240.485Z" stroke="#474747" stroke-width="2.5422" stroke-linecap="round" stroke-linejoin="round" stroke-dasharray="8.87 6.34"/>
<path d="M201.189 139.434H166.869C160.551 139.434 155.429 134.312 155.429 127.994V50.4575C155.429 44.1395 160.551 39.0176 166.869 39.0176H201.189C207.507 39.0176 212.629 44.1395 212.629 50.4575V127.994C212.629 134.312 207.507 139.434 201.189 139.434Z" fill="url(#paint1_linear)"/>
<path d="M201.189 134.139H166.869C160.551 134.139 155.429 129.017 155.429 122.699V127.995C155.429 134.313 160.551 139.435 166.869 139.435H201.189C207.507 139.435 212.629 134.313 212.629 127.995V122.699C212.629 129.017 207.507 134.139 201.189 134.139Z" fill="url(#paint2_linear)"/>
<path d="M201.189 39.0176H166.869C160.551 39.0176 155.429 44.1395 155.429 50.4575V54.7798C155.429 48.4618 160.551 43.3399 166.869 43.3399H201.189C207.507 43.3399 212.629 48.4618 212.629 54.7798V50.4575C212.629 44.1395 207.507 39.0176 201.189 39.0176Z" fill="#7895FF"/>
<path d="M201.189 139.434H166.869C160.551 139.434 155.429 134.312 155.429 127.994V50.4575C155.429 44.1395 160.551 39.0176 166.869 39.0176H201.189C207.507 39.0176 212.629 44.1395 212.629 50.4575V127.994C212.629 134.312 207.507 139.434 201.189 139.434Z" stroke="#474747" stroke-width="3.81329" stroke-miterlimit="10" stroke-linecap="round" stroke-linejoin="round"/>
<path opacity="0.3" d="M185.936 123.1C194.097 123.1 200.712 116.484 200.712 108.323C200.712 100.163 194.097 93.5469 185.936 93.5469C177.775 93.5469 171.159 100.163 171.159 108.323C171.159 116.484 177.775 123.1 185.936 123.1Z" fill="#474747" stroke="#474747" stroke-width="3.81329" stroke-miterlimit="10" stroke-linecap="round" stroke-linejoin="round"/>
<path opacity="0.46" d="M166.869 131.806C164.766 131.806 163.056 130.096 163.056 127.993V50.4559C163.056 48.3528 164.766 46.6426 166.869 46.6426H201.189C203.292 46.6426 205.002 48.3528 205.002 50.4559V127.993C205.002 130.096 203.292 131.806 201.189 131.806H166.869Z" stroke="#474747" stroke-width="2.5422" stroke-linecap="round" stroke-linejoin="round" stroke-dasharray="6.25 7.5"/>
<path d="M184.029 119.289C192.19 119.289 198.805 112.674 198.805 104.513C198.805 96.352 192.19 89.7363 184.029 89.7363C175.868 89.7363 169.252 96.352 169.252 104.513C169.252 112.674 175.868 119.289 184.029 119.289Z" fill="#E1E8FF"/>
<path d="M184.029 119.289C192.19 119.289 198.805 112.674 198.805 104.513C198.805 96.352 192.19 89.7363 184.029 89.7363C175.868 89.7363 169.252 96.352 169.252 104.513C169.252 112.674 175.868 119.289 184.029 119.289Z" stroke="#474747" stroke-width="3.81329" stroke-miterlimit="10" stroke-linecap="round" stroke-linejoin="round"/>
<path opacity="0.6" d="M190.26 96.9345C190.798 99.3375 187.926 100.879 183.695 101.752C179.457 102.59 175.651 102.731 175.129 100.695C174.592 98.695 177.462 94.984 181.694 93.7797C185.931 92.541 189.738 94.5684 190.26 96.9345Z" fill="#7895FF"/>
<path d="M396.235 279.583H351.731C349.179 279.583 347.112 277.515 347.112 274.965V271.878C347.112 269.327 349.18 267.26 351.731 267.26H396.235C398.786 267.26 400.853 269.328 400.853 271.878V274.965C400.854 277.516 398.786 279.583 396.235 279.583Z" fill="#7895FF"/>
<path opacity="0.88" d="M396.235 268.529H351.731C349.179 268.529 347.112 270.597 347.112 273.148V274.948C347.112 272.397 349.18 270.33 351.731 270.33H396.235C398.786 270.33 400.853 272.398 400.853 274.948V273.148C400.854 270.597 398.786 268.529 396.235 268.529Z" fill="#7895FF"/>
<path d="M396.235 278.191H351.731C349.179 278.191 347.112 276.122 347.112 273.572V271.771C347.112 274.323 349.18 276.39 351.731 276.39H396.235C398.786 276.39 400.853 274.322 400.853 271.771V273.572C400.854 276.123 398.786 278.191 396.235 278.191Z" fill="#7895FF"/>
<path d="M396.235 279.583H351.731C349.179 279.583 347.112 277.515 347.112 274.965V271.878C347.112 269.327 349.18 267.26 351.731 267.26H396.235C398.786 267.26 400.853 269.328 400.853 271.878V274.965C400.854 277.516 398.786 279.583 396.235 279.583Z" stroke="#7895FF" stroke-width="3.81329" stroke-miterlimit="10" stroke-linecap="round" stroke-linejoin="round"/>
<path d="M403.642 267.263H359.138C356.587 267.263 354.519 265.195 354.519 262.644V259.558C354.519 257.007 356.587 254.939 359.138 254.939H403.642C406.193 254.939 408.26 257.008 408.26 259.558V262.644C408.26 265.195 406.192 267.263 403.642 267.263Z" fill="#7895FF"/>
<path opacity="0.88" d="M403.642 256.209H359.138C356.587 256.209 354.519 258.277 354.519 260.828V262.628C354.519 260.077 356.587 258.009 359.138 258.009H403.642C406.193 258.009 408.26 260.078 408.26 262.628V260.828C408.26 258.277 406.192 256.209 403.642 256.209Z" fill="#7895FF"/>
<path d="M403.642 265.87H359.138C356.587 265.87 354.519 263.802 354.519 261.252V259.451C354.519 262.002 356.587 264.07 359.138 264.07H403.642C406.193 264.07 408.26 262.002 408.26 259.451V261.252C408.26 263.803 406.192 265.87 403.642 265.87Z" fill="#7895FF"/>
<path d="M403.642 267.263H359.138C356.587 267.263 354.519 265.195 354.519 262.644V259.558C354.519 257.007 356.587 254.939 359.138 254.939H403.642C406.193 254.939 408.26 257.008 408.26 259.558V262.644C408.26 265.195 406.192 267.263 403.642 267.263Z" stroke="#474747" stroke-width="3.81329" stroke-miterlimit="10" stroke-linecap="round" stroke-linejoin="round"/>
<path d="M396.235 254.937H351.731C349.179 254.937 347.112 252.869 347.112 250.318V247.232C347.112 244.681 349.18 242.613 351.731 242.613H396.235C398.786 242.613 400.853 244.681 400.853 247.232V250.318C400.854 252.869 398.786 254.937 396.235 254.937Z" fill="#E1E8FF"/>
<path opacity="0.88" d="M396.235 243.885H351.731C349.179 243.885 347.112 245.953 347.112 248.503V250.304C347.112 247.753 349.18 245.685 351.731 245.685H396.235C398.786 245.685 400.853 247.753 400.853 250.304V248.503C400.854 245.953 398.786 243.885 396.235 243.885Z" fill="#7895FF"/>
<path d="M396.235 253.546H351.731C349.179 253.546 347.112 251.478 347.112 248.927V247.127C347.112 249.678 349.18 251.746 351.731 251.746H396.235C398.786 251.746 400.853 249.677 400.853 247.127V248.927C400.854 251.479 398.786 253.546 396.235 253.546Z" fill="#7895FF"/>
<path d="M396.235 254.937H351.731C349.179 254.937 347.112 252.869 347.112 250.318V247.232C347.112 244.681 349.18 242.613 351.731 242.613H396.235C398.786 242.613 400.853 244.681 400.853 247.232V250.318C400.854 252.869 398.786 254.937 396.235 254.937Z" stroke="#474747" stroke-width="3.81329" stroke-miterlimit="10" stroke-linecap="round" stroke-linejoin="round"/>
<path d="M345.867 245.62L315.466 278.122C313.723 279.985 310.801 280.083 308.938 278.34L306.684 276.232C304.821 274.49 304.723 271.567 306.466 269.704L336.867 237.202C338.61 235.339 341.532 235.241 343.396 236.984L345.649 239.092C347.512 240.835 347.609 243.758 345.867 245.62Z" fill="#E1E8FF"/>
<path opacity="0.88" d="M337.795 238.069L307.394 270.571C305.651 272.434 305.749 275.357 307.612 277.099L308.927 278.329C307.064 276.587 306.966 273.664 308.709 271.801L339.11 239.299C340.853 237.436 343.776 237.338 345.638 239.081L344.323 237.851C342.461 236.108 339.538 236.206 337.795 238.069Z" fill="#7895FF"/>
<path d="M344.851 244.668L314.45 277.17C312.707 279.033 309.785 279.131 307.921 277.388L306.606 276.158C308.469 277.901 311.392 277.803 313.135 275.94L343.536 243.438C345.279 241.576 345.181 238.653 343.318 236.91L344.633 238.14C346.496 239.883 346.594 242.805 344.851 244.668Z" fill="#7895FF"/>
<path d="M345.867 245.62L315.466 278.122C313.723 279.985 310.801 280.083 308.938 278.34L306.684 276.232C304.821 274.49 304.723 271.567 306.466 269.704L336.867 237.202C338.61 235.339 341.532 235.241 343.396 236.984L345.649 239.092C347.512 240.835 347.609 243.758 345.867 245.62Z" stroke="#474747" stroke-width="3.81329" stroke-miterlimit="10" stroke-linecap="round" stroke-linejoin="round"/>
<defs>
<linearGradient id="paint0_linear" x1="288.895" y1="233.752" x2="272.943" y2="314.178" gradientUnits="userSpaceOnUse">
<stop stop-color="#D665FF"/>
<stop offset="1" stop-color="#4C6FFF"/>
</linearGradient>
<linearGradient id="paint1_linear" x1="212.629" y1="39.0176" x2="130.172" y2="90.7695" gradientUnits="userSpaceOnUse">
<stop stop-color="#D665FF"/>
<stop offset="1" stop-color="#4C6FFF"/>
</linearGradient>
<linearGradient id="paint2_linear" x1="212.629" y1="122.699" x2="205.058" y2="151.21" gradientUnits="userSpaceOnUse">
<stop stop-color="#D665FF"/>
<stop offset="1" stop-color="#4C6FFF"/>
</linearGradient>
</defs>
</svg>
