<svg width="420" height="278" viewBox="0 0 420 278" fill="none" xmlns="http://www.w3.org/2000/svg">
<path d="M159.188 271.908C234.104 271.908 294.835 211.177 294.835 136.261C294.835 61.3447 234.104 0.613281 159.188 0.613281C84.2719 0.613281 23.5405 61.3447 23.5405 136.261C23.5405 211.177 84.2719 271.908 159.188 271.908Z" fill="#D9EBFF"/>
<path d="M194.22 231.762H163.847V262.135H194.22V231.762Z" fill="#A9C0FF"/>
<path d="M419.138 271.578H0.861816V277.479H419.138V271.578Z" fill="#456BA3"/>
<path d="M163.847 260.168V233.729C163.847 233.207 163.639 232.707 163.27 232.338C162.902 231.969 162.401 231.762 161.88 231.762H156.372C155.85 231.762 155.35 231.969 154.981 232.338C154.612 232.707 154.405 233.207 154.405 233.729V269.61C154.405 270.132 154.612 270.632 154.981 271.001C155.35 271.37 155.85 271.577 156.372 271.577H192.253C192.775 271.577 193.275 271.37 193.644 271.001C194.013 270.632 194.22 270.132 194.22 269.61V264.102C194.22 263.58 194.013 263.08 193.644 262.711C193.275 262.342 192.775 262.135 192.253 262.135H165.814C165.555 262.135 165.3 262.084 165.061 261.985C164.822 261.886 164.605 261.742 164.423 261.559C164.24 261.376 164.095 261.159 163.996 260.921C163.897 260.682 163.847 260.426 163.847 260.168V260.168Z" fill="#6299E8"/>
<path d="M183.754 262.137V271.579H212.161C212.682 271.579 213.183 271.371 213.552 271.002C213.921 270.634 214.128 270.133 214.128 269.612V264.104C214.128 263.582 213.921 263.082 213.552 262.713C213.183 262.344 212.682 262.137 212.161 262.137H183.754Z" fill="#C2D5FF"/>
<path d="M42.4862 157.105H15.2129V158.417H42.4862V157.105Z" fill="#A9C0FF"/>
<path d="M41.494 149.061H14.2207V150.372H41.494V149.061Z" fill="#A9C0FF"/>
<path d="M43.4301 165.846H16.1567V167.157H43.4301V165.846Z" fill="#A9C0FF"/>
<path d="M250.492 51.3477H223.219V52.659H250.492V51.3477Z" fill="#A9C0FF"/>
<path d="M249.5 43.3027H222.227V44.6141H249.5V43.3027Z" fill="#A9C0FF"/>
<path d="M251.435 60.0879H224.162V61.3993H251.435V60.0879Z" fill="#A9C0FF"/>
<path d="M250.458 111.863H83.6509C81.4782 111.863 79.7168 113.625 79.7168 115.797V234.387C79.7168 236.56 81.4782 238.321 83.6509 238.321H250.458C252.631 238.321 254.392 236.56 254.392 234.387V115.797C254.392 113.625 252.631 111.863 250.458 111.863Z" fill="#6299E8"/>
<path d="M250.457 239.302H83.6506C82.3468 239.301 81.0968 238.782 80.1749 237.86C79.253 236.938 78.7344 235.688 78.7329 234.384V115.795C78.7344 114.491 79.253 113.241 80.1749 112.319C81.0968 111.397 82.3468 110.878 83.6506 110.877H250.457C251.761 110.878 253.011 111.397 253.933 112.319C254.855 113.241 255.374 114.491 255.375 115.795V234.384C255.374 235.688 254.855 236.938 253.933 237.86C253.011 238.782 251.761 239.301 250.457 239.302V239.302ZM83.6506 112.844C82.8683 112.845 82.1183 113.156 81.5651 113.709C81.012 114.262 80.7008 115.012 80.7 115.795V234.384C80.7008 235.167 81.012 235.917 81.5651 236.47C82.1183 237.023 82.8683 237.334 83.6506 237.335H250.457C251.24 237.334 251.99 237.023 252.543 236.47C253.096 235.917 253.407 235.167 253.408 234.384V115.795C253.407 115.012 253.096 114.262 252.543 113.709C251.99 113.156 251.24 112.845 250.457 112.844H83.6506Z" fill="#4D76B8"/>
<path d="M261.413 111.863H94.6065C92.4337 111.863 90.6724 113.625 90.6724 115.797V234.387C90.6724 236.56 92.4337 238.321 94.6065 238.321H261.413C263.586 238.321 265.348 236.56 265.348 234.387V115.797C265.348 113.625 263.586 111.863 261.413 111.863Z" fill="white"/>
<path d="M248.201 124.84H107.818C105.646 124.84 103.884 126.601 103.884 128.774V221.407C103.884 223.58 105.646 225.341 107.818 225.341H248.201C250.374 225.341 252.135 223.58 252.135 221.407V128.774C252.135 126.601 250.374 124.84 248.201 124.84Z" fill="#D9EBFF"/>
<path d="M261.413 239.302H94.6061C93.3023 239.301 92.0524 238.782 91.1305 237.86C90.2085 236.938 89.69 235.688 89.6885 234.384V115.795C89.69 114.491 90.2085 113.241 91.1305 112.319C92.0524 111.397 93.3023 110.878 94.6061 110.877H261.413C262.717 110.878 263.967 111.397 264.889 112.319C265.811 113.241 266.329 114.491 266.331 115.795V234.384C266.329 235.688 265.811 236.938 264.889 237.86C263.967 238.782 262.717 239.301 261.413 239.302ZM94.6061 112.844C93.8239 112.845 93.0739 113.156 92.5207 113.709C91.9675 114.262 91.6564 115.012 91.6555 115.795V234.384C91.6564 235.167 91.9675 235.917 92.5207 236.47C93.0739 237.023 93.8239 237.334 94.6061 237.335H261.413C262.195 237.334 262.945 237.023 263.499 236.47C264.052 235.917 264.363 235.167 264.364 234.384V115.795C264.363 115.012 264.052 114.262 263.499 113.709C262.945 113.156 262.195 112.845 261.413 112.844H94.6061Z" fill="#4D76B8"/>
<path d="M248.201 124.84H107.818C106.775 124.84 105.774 125.254 105.037 125.992C104.299 126.73 103.884 127.731 103.884 128.774V139.607H252.135V128.774C252.135 128.257 252.033 127.746 251.836 127.268C251.638 126.791 251.348 126.357 250.983 125.992C250.617 125.627 250.184 125.337 249.706 125.139C249.229 124.942 248.718 124.84 248.201 124.84V124.84ZM103.884 212.787V221.407C103.884 222.451 104.299 223.451 105.037 224.189C105.774 224.927 106.775 225.341 107.818 225.341H248.201C249.244 225.341 250.245 224.927 250.983 224.189C251.721 223.451 252.135 222.451 252.135 221.407V212.787H103.884Z" fill="#A9C0FF"/>
<path d="M166.732 148.186H114.801V149.497H166.732V148.186Z" fill="#456BA3"/>
<path d="M166.732 159.387H114.801V160.698H166.732V159.387Z" fill="#456BA3"/>
<path d="M241.428 170.588H114.801V171.899H241.428V170.588Z" fill="#456BA3"/>
<path d="M241.428 181.789H114.801V183.1H241.428V181.789Z" fill="#456BA3"/>
<path d="M241.428 192.99H114.801V194.302H241.428V192.99Z" fill="#456BA3"/>
<path d="M241.428 204.191H114.801V205.503H241.428V204.191Z" fill="#456BA3"/>
<path opacity="0.28" d="M284.144 87.252H188.797C186.624 87.252 184.863 89.0133 184.863 91.1861V158.042C184.863 160.215 186.624 161.976 188.797 161.976H284.144C286.317 161.976 288.079 160.215 288.079 158.042V91.1861C288.079 89.0133 286.317 87.252 284.144 87.252Z" fill="#6299E8"/>
<path d="M294.058 77.543H198.711C196.538 77.543 194.777 79.3043 194.777 81.4771V148.333C194.777 150.506 196.538 152.267 198.711 152.267H294.058C296.231 152.267 297.993 150.506 297.993 148.333V81.4771C297.993 79.3043 296.231 77.543 294.058 77.543Z" fill="white"/>
<path d="M297.993 94.0176H194.777V95.9846H297.993V94.0176Z" fill="#A9C0FF"/>
<path d="M294.058 153.252H198.711C197.407 153.25 196.157 152.732 195.235 151.81C194.313 150.888 193.795 149.638 193.793 148.334V81.4782C193.795 80.1744 194.313 78.9244 195.235 78.0025C196.157 77.0805 197.407 76.562 198.711 76.5605H294.058C295.362 76.562 296.612 77.0805 297.534 78.0025C298.456 78.9244 298.975 80.1744 298.976 81.4782V148.334C298.975 149.638 298.456 150.888 297.534 151.81C296.612 152.732 295.362 153.25 294.058 153.252ZM198.711 78.5276C197.929 78.5285 197.179 78.8396 196.626 79.3928C196.073 79.9459 195.761 80.6959 195.761 81.4782V148.334C195.761 149.116 196.073 149.866 196.626 150.419C197.179 150.973 197.929 151.284 198.711 151.285H294.058C294.841 151.284 295.591 150.973 296.144 150.419C296.697 149.866 297.008 149.116 297.009 148.334V81.4782C297.008 80.6959 296.697 79.9459 296.144 79.3928C295.591 78.8396 294.841 78.5285 294.058 78.5276H198.711Z" fill="#4D76B8"/>
<path d="M238.035 100.463H207.804C207.08 100.463 206.493 101.05 206.493 101.774V132.005C206.493 132.729 207.08 133.316 207.804 133.316H238.035C238.759 133.316 239.346 132.729 239.346 132.005V101.774C239.346 101.05 238.759 100.463 238.035 100.463Z" fill="#D9EBFF"/>
<path d="M282.369 100.463H245.336C244.612 100.463 244.024 101.05 244.024 101.774V107.854C244.024 108.578 244.612 109.165 245.336 109.165H282.369C283.093 109.165 283.68 108.578 283.68 107.854V101.774C283.68 101.05 283.093 100.463 282.369 100.463Z" fill="#A9C0FF"/>
<path d="M254.078 140.324H233.97C233.246 140.324 232.659 140.911 232.659 141.636V144.001C232.659 144.726 233.246 145.313 233.97 145.313H254.078C254.802 145.313 255.389 144.726 255.389 144.001V141.636C255.389 140.911 254.802 140.324 254.078 140.324Z" fill="#A9C0FF"/>
<path d="M282.369 112.537H245.336C244.612 112.537 244.024 113.124 244.024 113.848V119.928C244.024 120.652 244.612 121.239 245.336 121.239H282.369C283.093 121.239 283.68 120.652 283.68 119.928V113.848C283.68 113.124 283.093 112.537 282.369 112.537Z" fill="#A9C0FF"/>
<path d="M282.369 124.613H245.336C244.612 124.613 244.024 125.2 244.024 125.925V132.004C244.024 132.728 244.612 133.316 245.336 133.316H282.369C283.093 133.316 283.68 132.728 283.68 132.004V125.925C283.68 125.2 283.093 124.613 282.369 124.613Z" fill="#A9C0FF"/>
<path opacity="0.28" d="M138.346 54.1113H42.9986C40.8258 54.1113 39.0645 55.8727 39.0645 58.0455V124.901C39.0645 127.074 40.8258 128.835 42.9986 128.835H138.346C140.519 128.835 142.28 127.074 142.28 124.901V58.0455C142.28 55.8727 140.519 54.1113 138.346 54.1113Z" fill="#6299E8"/>
<path d="M123.447 44.4043H28.0992C25.9264 44.4043 24.165 46.1657 24.165 48.3384V115.194C24.165 117.367 25.9264 119.128 28.0992 119.128H123.447C125.619 119.128 127.381 117.367 127.381 115.194V48.3384C127.381 46.1657 125.619 44.4043 123.447 44.4043Z" fill="white"/>
<path d="M127.381 60.8789H24.165V62.846H127.381V60.8789Z" fill="#A9C0FF"/>
<path d="M123.446 120.112H28.0993C26.7955 120.111 25.5455 119.592 24.6236 118.67C23.7016 117.749 23.1831 116.499 23.1816 115.195V48.3395C23.1831 47.0357 23.7016 45.7857 24.6236 44.8638C25.5455 43.9419 26.7955 43.4233 28.0993 43.4219H123.446C124.75 43.4233 126 43.9419 126.922 44.8638C127.844 45.7857 128.363 47.0357 128.364 48.3395V115.195C128.363 116.499 127.844 117.749 126.922 118.67C126 119.592 124.75 120.111 123.446 120.112ZM28.0993 45.3889C27.317 45.3898 26.567 45.7009 26.0139 46.2541C25.4607 46.8072 25.1496 47.5572 25.1487 48.3395V115.195C25.1496 115.977 25.4607 116.727 26.0139 117.28C26.567 117.833 27.317 118.144 28.0993 118.145H123.446C124.229 118.144 124.979 117.833 125.532 117.28C126.085 116.727 126.396 115.977 126.397 115.195V48.3395C126.396 47.5572 126.085 46.8073 125.532 46.2541C124.979 45.7009 124.229 45.3898 123.446 45.3889H28.0993Z" fill="#4D76B8"/>
<path d="M111.939 69.291H39.6058C38.8816 69.291 38.2944 69.8781 38.2944 70.6024V76.6819C38.2944 77.4062 38.8816 77.9933 39.6058 77.9933H111.939C112.664 77.9933 113.251 77.4062 113.251 76.6819V70.6024C113.251 69.8781 112.664 69.291 111.939 69.291Z" fill="#A9C0FF"/>
<path d="M111.939 81.3652H39.6058C38.8816 81.3652 38.2944 81.9524 38.2944 82.6766V88.7562C38.2944 89.4804 38.8816 90.0675 39.6058 90.0675H111.939C112.664 90.0675 113.251 89.4804 113.251 88.7562V82.6766C113.251 81.9524 112.664 81.3652 111.939 81.3652Z" fill="#A9C0FF"/>
<path d="M113.251 95.9844H38.2944V97.9514H113.251V95.9844Z" fill="#4D76B8"/>
<path d="M113.251 101.445H38.2944V103.412H113.251V101.445Z" fill="#4D76B8"/>
<path d="M113.251 106.906H38.2944V108.873H113.251V106.906Z" fill="#4D76B8"/>
<path d="M279.582 270.812H314.261C312.325 270.812 310.445 270.16 308.924 268.962C307.403 267.764 306.329 266.09 305.876 264.208L294.661 217.676C294.207 215.794 293.133 214.119 291.612 212.922C290.091 211.724 288.212 211.072 286.276 211.072H283.461C282.159 211.072 280.873 211.367 279.701 211.935C278.529 212.503 277.501 213.329 276.693 214.351C275.886 215.373 275.321 216.565 275.04 217.836C274.759 219.108 274.769 220.427 275.071 221.694L284.414 260.956C284.716 262.223 284.726 263.542 284.445 264.813C284.164 266.085 283.599 267.277 282.791 268.299C281.984 269.321 280.956 270.147 279.784 270.715C278.611 271.283 277.326 271.578 276.023 271.578V271.578L279.582 270.812Z" fill="#6299E8"/>
<path d="M282.109 210.996H316.788H316.869L328.175 260.258C328.465 261.521 328.467 262.834 328.179 264.099C327.892 265.363 327.323 266.546 326.515 267.561C325.707 268.575 324.681 269.394 323.513 269.957C322.345 270.52 321.065 270.812 319.769 270.812H314.261C312.325 270.812 310.445 270.161 308.924 268.963C307.403 267.765 306.329 266.09 305.876 264.208L294.661 217.677C294.207 215.795 293.133 214.12 291.612 212.922C290.091 211.724 288.212 211.073 286.276 211.073L282.109 210.996ZM264.271 254.652L267.772 265.464C268.31 267.233 269.403 268.782 270.889 269.883C272.374 270.984 274.174 271.578 276.023 271.578V271.578C277.326 271.578 278.611 271.283 279.784 270.715C280.956 270.147 281.984 269.321 282.791 268.299C283.599 267.277 284.164 266.086 284.445 264.814C284.726 263.542 284.716 262.223 284.414 260.956L282.914 254.652H264.271Z" fill="#4D76B8"/>
<path d="M319.768 270.812C321.065 270.812 322.345 270.519 323.513 269.956C324.681 269.393 325.707 268.574 326.515 267.56C327.323 266.546 327.891 265.363 328.179 264.098C328.466 262.834 328.465 261.521 328.175 260.257L309.43 178.584C309.14 177.32 309.139 176.007 309.426 174.743C309.713 173.478 310.282 172.295 311.09 171.281C311.898 170.267 312.924 169.448 314.092 168.885C315.26 168.322 316.54 168.029 317.836 168.029H321.197L368.032 178.584L386.777 260.257C387.067 261.521 387.069 262.834 386.781 264.098C386.494 265.363 385.925 266.546 385.117 267.56C384.309 268.574 383.283 269.393 382.115 269.956C380.947 270.519 379.667 270.812 378.371 270.812H319.768Z" fill="#6299E8"/>
<path d="M376.439 168.029H379.799C381.67 168.029 383.49 168.638 384.985 169.763C386.48 170.887 387.569 172.468 388.087 174.266L391.998 187.833C392.516 189.631 393.604 191.211 395.099 192.336C396.594 193.461 398.414 194.07 400.285 194.07H341.683C339.812 194.07 337.992 193.461 336.497 192.336C335.002 191.211 333.913 189.631 333.395 187.833L329.484 174.266C328.966 172.468 327.878 170.887 326.383 169.763C324.888 168.638 323.068 168.029 321.197 168.029H376.439Z" fill="#4D76B8"/>
<path d="M341.683 194.071H342.626C343.93 194.071 345.218 193.775 346.391 193.205C347.565 192.636 348.594 191.808 349.401 190.783C350.208 189.759 350.773 188.564 351.051 187.29C351.33 186.016 351.317 184.695 351.011 183.427L349.591 177.527H408.194L409.614 183.427C409.919 184.695 409.933 186.016 409.654 187.29C409.375 188.564 408.811 189.759 408.004 190.783C407.196 191.808 406.167 192.636 404.994 193.205C403.82 193.775 402.533 194.071 401.228 194.071H341.683Z" fill="#92B1EF"/>
<path d="M364.38 207.332H323.291V209.299H364.38V207.332Z" fill="#4D76B8"/>
<path d="M367.2 217.16H326.111V219.127H367.2V217.16Z" fill="#4D76B8"/>
<path d="M370.084 227.076H328.995V229.043H370.084V227.076Z" fill="#4D76B8"/>
<path d="M372.967 236.994H331.878V238.961H372.967V236.994Z" fill="#4D76B8"/>
<path d="M375.851 246.912H334.762V248.879H375.851V246.912Z" fill="#4D76B8"/>
<path d="M378.735 256.828H337.646V258.795H378.735V256.828Z" fill="#4D76B8"/>
<path d="M304.969 225.592H284.689V227.559H304.969V225.592Z" fill="#4D76B8"/>
<path d="M306.361 235.418H286.08V237.385H306.361V235.418Z" fill="#4D76B8"/>
<path d="M307.784 245.336H287.504V247.303H307.784V245.336Z" fill="#4D76B8"/>
<path d="M309.208 255.254H288.927V257.221H309.208V255.254Z" fill="#4D76B8"/>
<path d="M29.8481 203.377C30.282 206.181 30.5375 208.983 30.7296 211.784C30.843 213.185 30.8902 214.585 30.9696 215.985L31.1086 220.185C31.1676 222.984 31.1264 225.782 30.9848 228.579C30.8274 231.375 30.6879 234.172 30.566 236.969L29.8596 253.751C29.5673 259.345 29.3225 264.939 28.9893 270.531L28.6614 270.527C28.4711 264.928 28.3696 259.329 28.2204 253.73L27.9435 236.935C27.8892 234.136 27.8212 231.337 27.7394 228.537C27.6707 225.738 27.701 222.94 27.8303 220.143L28.0765 215.948C28.1917 214.55 28.2747 213.152 28.4239 211.755C28.6877 208.96 29.0147 206.165 29.5202 203.373L29.8481 203.377Z" fill="#A9C0FF"/>
<path d="M45.08 203.945C45.3354 204.63 45.5501 205.317 45.7867 206.003L46.4269 208.065C46.8492 209.44 47.2332 210.818 47.5991 212.196C47.7387 214.991 47.946 217.782 48.116 220.575L49.1892 237.331L50.2622 254.086L50.7988 262.464C50.3807 265.295 49.9811 268.125 49.3723 270.968C48.4058 268.225 47.6486 265.47 46.8727 262.715L46.3361 254.338L45.2631 237.582L44.1901 220.827C44.0024 218.035 43.8518 215.24 43.6338 212.45C43.8209 211.036 44.0261 209.621 44.2695 208.203L44.6415 206.076C44.7886 205.366 44.914 204.657 45.08 203.945Z" fill="#4D76B8"/>
<path d="M51.8321 194.838L44.0225 240.393L54.8202 242.244L62.6298 196.689L51.8321 194.838Z" fill="#A9C0FF"/>
<path d="M31.2853 195.79C31.5641 196.465 31.8025 197.144 32.0628 197.822L32.774 199.86C33.2435 201.22 33.6751 202.583 34.0884 203.948C34.3247 206.737 34.6284 209.519 34.8951 212.304L36.5474 229.013L38.1997 245.721L39.0259 254.075C38.7061 256.919 38.4046 259.761 37.8944 262.623C36.8338 259.916 35.9815 257.188 35.1108 254.463L34.2846 246.108L32.6323 229.4L30.98 212.691C30.6958 209.908 30.4489 207.12 30.1343 204.339C30.2723 202.92 30.4283 201.498 30.6227 200.073L30.9208 197.935C31.0432 197.219 31.1439 196.507 31.2853 195.79ZM41.6626 187.383C41.8648 188.085 42.0261 188.787 42.2094 189.489L42.6898 191.594C43.0054 192.997 43.2828 194.4 43.542 195.802C43.4669 198.6 43.4593 201.398 43.4148 204.196L43.2002 220.985L42.9855 237.773L42.8781 246.168C42.2442 248.958 41.6288 251.749 40.8038 254.537C40.0504 251.729 39.5066 248.923 38.9443 246.117L39.0517 237.723L39.2664 220.935L39.481 204.146C39.5081 201.348 39.5723 198.55 39.5688 195.752C39.8636 194.356 40.1767 192.961 40.5281 191.566L41.0622 189.474C41.2634 188.777 41.4427 188.08 41.6626 187.383Z" fill="#6299E8"/>
<path d="M36.7742 203.946C37.2081 206.75 37.4636 209.552 37.6559 212.353C37.7692 213.753 37.8163 215.153 37.8959 216.554L38.0347 220.753C38.0939 223.552 38.0527 226.35 37.9109 229.147C37.7536 231.944 37.614 234.74 37.4922 237.537L36.7857 254.32C36.4934 259.913 36.2488 265.507 35.9153 271.1L35.5875 271.095C35.3974 265.496 35.2958 259.898 35.1466 254.299L34.8695 237.504C34.8154 234.705 34.7475 231.905 34.6656 229.106C34.5969 226.306 34.6273 223.508 34.7565 220.711L35.0027 216.516C35.118 215.119 35.2009 213.72 35.3501 212.323C35.6138 209.528 35.9408 206.734 36.4463 203.941L36.7742 203.946Z" fill="#A9C0FF"/>
<path d="M64.0178 203.375C64.0673 204.104 64.0767 204.824 64.1078 205.549L64.1329 207.708C64.1451 209.146 64.1201 210.576 64.0772 212.002C63.4133 214.72 62.8153 217.454 62.181 220.18L58.427 236.545L54.673 252.909L52.796 261.092C51.5873 263.685 50.3967 266.283 49.0018 268.834C48.8582 265.93 48.9189 263.073 48.9615 260.212L50.8386 252.03L54.5925 235.665L58.3465 219.3C58.9636 216.571 59.6171 213.85 60.2044 211.113C60.7872 209.811 61.3879 208.514 62.0258 207.225L62.9893 205.292C63.3332 204.653 63.6556 204.01 64.0178 203.375Z" fill="#6299E8"/>
<path d="M61.4915 271.577H29.4195C29.0877 271.577 28.7683 271.451 28.5256 271.225C28.2829 270.999 28.1349 270.689 28.1114 270.358L24.3631 224.027C24.3504 223.848 24.3748 223.667 24.4348 223.498C24.4948 223.328 24.589 223.172 24.7117 223.041C24.8345 222.909 24.983 222.804 25.1481 222.732C25.3131 222.66 25.4912 222.623 25.6712 222.623H65.2397C65.4197 222.623 65.5978 222.66 65.7629 222.732C65.928 222.804 66.0765 222.909 66.1992 223.041C66.3219 223.172 66.4162 223.328 66.4762 223.498C66.5361 223.667 66.5605 223.848 66.5478 224.027L62.7995 270.358C62.7761 270.689 62.6281 270.999 62.3854 271.225C62.1426 271.451 61.8232 271.577 61.4915 271.577V271.577Z" fill="#92B1EF"/>
<path d="M65.6915 236.106L66.3053 227.451H24.6055L25.2192 236.106H65.6915Z" fill="#A9C0FF"/>
<path d="M367.116 93.7051H329.506C329.247 93.7051 328.992 93.7559 328.753 93.8548C328.514 93.9536 328.297 94.0985 328.115 94.2812C327.932 94.4638 327.787 94.6807 327.688 94.9194C327.589 95.158 327.539 95.4138 327.539 95.6721V133.282C327.539 133.541 327.589 133.796 327.688 134.035C327.787 134.274 327.932 134.491 328.115 134.673C328.297 134.856 328.514 135.001 328.753 135.1C328.992 135.199 329.247 135.249 329.506 135.249H353.73L356.776 139.783C356.836 139.872 356.917 139.945 357.012 139.996C357.106 140.047 357.212 140.073 357.32 140.073C357.427 140.073 357.533 140.047 357.628 139.996C357.723 139.945 357.804 139.872 357.864 139.783L360.91 135.249H367.116C367.638 135.249 368.138 135.042 368.507 134.673C368.876 134.304 369.083 133.804 369.083 133.282V95.6721C369.083 95.1504 368.876 94.6501 368.507 94.2812C368.138 93.9123 367.638 93.7051 367.116 93.7051V93.7051Z" fill="white"/>
<path d="M355.042 106.804L337.608 112.207C337.285 112.292 336.998 112.48 336.79 112.741C336.582 113.003 336.465 113.324 336.454 113.658C336.444 113.992 336.542 114.32 336.733 114.594C336.925 114.868 337.199 115.072 337.516 115.178L345.424 117.827C345.453 117.838 345.48 117.855 345.502 117.876C345.525 117.898 345.543 117.924 345.555 117.953L348.464 125.504C348.583 125.807 348.791 126.066 349.062 126.247C349.332 126.428 349.651 126.522 349.977 126.517H350.017C350.348 126.517 350.67 126.412 350.938 126.217C351.206 126.023 351.405 125.748 351.508 125.434L357.053 108.78C357.14 108.514 357.153 108.229 357.09 107.955C357.027 107.682 356.891 107.432 356.696 107.23C356.488 107.011 356.223 106.855 355.93 106.779C355.638 106.704 355.33 106.712 355.042 106.804V106.804Z" fill="#A9C0FF"/>
<path d="M357.32 141.056C357.051 141.056 356.786 140.99 356.549 140.864C356.312 140.737 356.109 140.554 355.959 140.331L353.206 136.232H329.506C328.723 136.232 327.973 135.92 327.42 135.367C326.867 134.814 326.556 134.064 326.555 133.282V95.6713C326.556 94.889 326.867 94.139 327.42 93.5859C327.973 93.0327 328.723 92.7216 329.506 92.7207H367.116C367.898 92.7216 368.648 93.0327 369.201 93.5859C369.755 94.139 370.066 94.889 370.067 95.6713V133.282C370.066 134.064 369.755 134.814 369.201 135.367C368.648 135.92 367.898 136.232 367.116 136.232H361.434L358.681 140.331C358.531 140.554 358.329 140.737 358.091 140.864C357.854 140.99 357.589 141.056 357.321 141.056L357.32 141.056ZM329.506 94.6878C329.245 94.6881 328.995 94.7918 328.811 94.9762C328.626 95.1605 328.523 95.4105 328.522 95.6713V133.282C328.523 133.543 328.626 133.793 328.811 133.977C328.995 134.161 329.245 134.265 329.506 134.265H354.254L357.32 138.829L360.386 134.265H367.116C367.377 134.265 367.627 134.161 367.811 133.977C367.995 133.793 368.099 133.543 368.099 133.282V95.6713C368.099 95.4105 367.995 95.1605 367.811 94.9762C367.627 94.7918 367.377 94.6881 367.116 94.6878H329.506Z" fill="#4D76B8"/>
</svg>
