<svg width="373" height="303" viewBox="0 0 373 303" fill="none" xmlns="http://www.w3.org/2000/svg">
<path d="M244.436 301.54C256.513 297.764 267.349 293.907 280.385 286.586C293.83 279.035 353.555 243.1 361.322 180.908C363.357 163.863 361.668 146.579 356.372 130.25C353.972 123.212 348.992 109.075 336.424 95.0955C321.04 77.9717 303.485 71.3347 293.191 67.5814C271.534 59.681 253.369 60.0972 244.718 60.3796C235.383 60.6843 218.906 61.3681 200.177 69.551C187.958 74.8873 180.363 80.9743 169.17 90.0713C151.437 104.497 149.103 110.502 118.081 140.291C109.564 148.466 102.562 154.91 91.8749 161.257C84.465 165.657 78.4746 168.117 67.4229 172.606C40.2582 183.643 32.5238 185.877 23.6349 192.091C6.34758 204.183 7.4673 217.37 6.72408 220.209C4.79139 227.47 4.34396 235.046 5.40858 242.484C7.6754 257.4 15.7096 267.151 20.6966 273.052C27.542 281.079 35.8371 287.745 45.1486 292.703C51.6128 296.114 58.3083 299.066 65.1858 301.54H244.436Z" fill="#EBF2FA"/>
<path d="M282.78 290.998L282.415 290.35C300.179 280.37 358.742 242.959 366.531 180.549C368.632 162.85 366.879 144.907 361.393 127.95C359.18 121.46 353.998 106.263 340.696 91.4611C324.404 73.3331 305.805 66.5494 295.813 62.9051C279.69 57.1016 262.575 54.558 245.462 55.4217C236.227 55.7222 219.04 56.2815 199.201 64.9435L198.904 64.2627C218.873 55.543 236.815 54.9594 245.437 54.6793C262.646 53.8101 279.856 56.3689 296.067 62.2069C306.12 65.8733 324.833 72.6984 341.249 90.9646C354.653 105.879 359.869 121.177 362.097 127.71C367.618 144.774 369.382 162.831 367.269 180.641C359.437 243.396 300.62 280.975 282.78 290.998Z" fill="#D5EFC8"/>
<path d="M168.377 14.3203H161.033C158.825 14.3203 157.035 16.1102 157.035 18.3181V25.6626C157.035 27.8705 158.825 29.6604 161.033 29.6604H168.377C170.585 29.6604 172.375 27.8705 172.375 25.6626V18.3181C172.375 16.1102 170.585 14.3203 168.377 14.3203Z" fill="#3754DB"/>
<path d="M123.047 301.538H116.834L142.015 188.355L154.7 191.771L123.047 301.538Z" fill="#3754DB"/>
<path d="M207.123 301.538H213.336L188.155 188.355L175.47 191.771L207.123 301.538Z" fill="#3754DB"/>
<path d="M265.037 23.377H65.062C63.6233 23.377 62.457 24.5432 62.457 25.9819V201.299C62.457 202.737 63.6233 203.904 65.062 203.904H265.037C266.475 203.904 267.642 202.737 267.642 201.299V25.9819C267.642 24.5432 266.475 23.377 265.037 23.377Z" fill="#E1E8FF"/>
<path d="M198.77 197.188H131.33C130.189 197.188 129.264 198.112 129.264 199.253V204.892C129.264 206.033 130.189 206.958 131.33 206.958H198.77C199.911 206.958 200.836 206.033 200.836 204.892V199.253C200.836 198.112 199.911 197.188 198.77 197.188Z" fill="#3754DB"/>
<path d="M170.405 131.128L184.451 97.5182C184.699 96.9247 185.113 96.4151 185.642 96.0503C186.172 95.6855 186.796 95.481 187.439 95.4611C188.082 95.4412 188.717 95.6068 189.268 95.9382C189.82 96.2695 190.264 96.7526 190.548 97.3297L204.245 125.138C204.52 125.696 204.944 126.166 205.47 126.496C205.997 126.826 206.605 127.004 207.226 127.008C207.847 127.013 208.458 126.844 208.989 126.522C209.52 126.2 209.952 125.736 210.234 125.183L231.801 82.9879C232.087 82.428 232.525 81.96 233.064 81.6372C233.604 81.3145 234.223 81.1501 234.852 81.1628C235.481 81.1755 236.093 81.3648 236.619 81.7091C237.145 82.0534 237.564 82.5388 237.827 83.1097L259.969 131.128" fill="#6C7FD8"/>
<path d="M151.557 131.128L165.603 97.5182C165.851 96.9247 166.265 96.4151 166.795 96.0503C167.325 95.6855 167.948 95.481 168.591 95.4611C169.234 95.4412 169.869 95.6068 170.421 95.9382C170.972 96.2695 171.416 96.7526 171.701 97.3297L185.397 125.138C185.672 125.696 186.096 126.166 186.623 126.496C187.149 126.826 187.757 127.004 188.378 127.008C189 127.013 189.61 126.844 190.142 126.522C190.673 126.2 191.104 125.736 191.387 125.183L212.953 82.9879C213.239 82.428 213.677 81.96 214.217 81.6372C214.756 81.3145 215.376 81.1501 216.004 81.1628C216.633 81.1755 217.245 81.3648 217.771 81.7091C218.297 82.0534 218.716 82.5388 218.979 83.1097L241.121 131.128" fill="#7895FF"/>
<path d="M210.234 125.182C209.952 125.735 209.52 126.199 208.989 126.521C208.458 126.844 207.847 127.012 207.226 127.007C206.605 127.003 205.997 126.825 205.47 126.495C204.944 126.165 204.52 125.695 204.245 125.137L197.946 112.348L191.387 125.182C191.104 125.735 190.673 126.199 190.142 126.521C189.61 126.844 189 127.012 188.378 127.007C187.757 127.003 187.149 126.825 186.623 126.495C186.096 126.165 185.672 125.695 185.397 125.137L178.641 111.42L170.405 131.128H241.121L225.031 96.2324L210.234 125.182Z" fill="#7895FF"/>
<path d="M110.002 108.391C122.225 108.391 132.133 98.4823 132.133 86.2598C132.133 74.0372 122.225 64.1289 110.002 64.1289C97.7799 64.1289 87.8716 74.0372 87.8716 86.2598C87.8716 98.4823 97.7799 108.391 110.002 108.391Z" fill="#7895FF"/>
<path d="M110.002 86.2615L87.9717 84.1606C88.391 79.7631 90.1168 75.5918 92.9269 72.1834C95.7369 68.7751 99.5027 66.2856 103.74 65.0355C107.976 63.7854 112.49 63.8319 116.701 65.1688C120.911 66.5058 124.625 69.0722 127.364 72.5376L110.002 86.2615Z" fill="#7895FF"/>
<path d="M110.002 86.2611L123.361 103.905C119.926 106.506 115.806 108.047 111.507 108.341C107.209 108.634 102.918 107.665 99.1614 105.555C95.405 103.444 92.3465 100.283 90.3611 96.4587C88.3756 92.6346 87.5497 88.3141 87.9846 84.0273L110.002 86.2611Z" fill="#6C7FD8"/>
<path d="M144.569 63.9095C152.175 63.9095 158.341 57.7439 158.341 50.1383C158.341 42.5327 152.175 36.3672 144.569 36.3672C136.964 36.3672 130.798 42.5327 130.798 50.1383C130.798 57.7439 136.964 63.9095 144.569 63.9095Z" fill="#7895FF"/>
<path d="M144.569 50.1387L146.586 63.7612C143.867 64.1638 141.09 63.7434 138.611 62.5542C136.133 61.3649 134.068 59.4612 132.68 57.0882C131.293 54.7151 130.648 51.9812 130.828 49.2383C131.008 46.4954 132.004 43.8691 133.689 41.6973L144.569 50.1387Z" fill="#7895FF"/>
<path d="M144.57 50.1376L153.236 39.4355C155.32 41.1229 156.866 43.3817 157.684 45.935C158.502 48.4883 158.557 51.2249 157.842 53.809C157.128 56.3931 155.674 58.7124 153.66 60.4822C151.646 62.252 149.159 63.3954 146.504 63.772L144.57 50.1376Z" fill="#6C7FD8"/>
<path d="M80.4055 141.914H75.8027V181.688H80.4055V141.914Z" fill="#7895FF"/>
<path d="M91.9138 152.408H87.311V181.686H91.9138V152.408Z" fill="#7895FF"/>
<path d="M103.423 137.023H98.8203V181.687H103.423V137.023Z" fill="#7895FF"/>
<path d="M114.93 131.418H110.328V181.687H114.93V131.418Z" fill="#7895FF"/>
<path d="M126.44 141.914H121.837V181.688H126.44V141.914Z" fill="#7895FF"/>
<path d="M137.948 162.137H133.345V181.687H137.948V162.137Z" fill="#7895FF"/>
<path d="M149.456 146.748H144.854V181.688H149.456V146.748Z" fill="#7895FF"/>
<path d="M155.672 182.262H68.1161C67.9634 182.262 67.817 182.202 67.7091 182.094C67.6012 181.986 67.5405 181.84 67.5405 181.687C67.5405 181.534 67.6012 181.388 67.7091 181.28C67.817 181.172 67.9634 181.111 68.1161 181.111H155.672C155.824 181.111 155.971 181.172 156.079 181.28C156.187 181.388 156.247 181.534 156.247 181.687C156.247 181.84 156.187 181.986 156.079 182.094C155.971 182.202 155.824 182.262 155.672 182.262Z" fill="#7895FF"/>
<path d="M83.0959 67.5691L82.3882 68.2949L92.1241 77.7879L92.8318 77.062L83.0959 67.5691Z" fill="#7895FF"/>
<path d="M147.973 117.513H140.668L124.208 96.5223L125.006 95.8965L141.161 116.499H147.973V117.513Z" fill="#7895FF"/>
<path d="M80.9152 63.623H69.9624V64.6375H80.9152V63.623Z" fill="#7895FF"/>
<path d="M80.9152 66.7871H69.9624V67.8016H80.9152V66.7871Z" fill="#7895FF"/>
<path d="M150.407 119.473H140.915V120.487H150.407V119.473Z" fill="#7895FF"/>
<path d="M145.996 63.844L144.091 50.4155L133.375 42.1011L134.004 41.291L145.049 49.8596L147.012 63.7006L145.996 63.844Z" fill="#FAFAFA"/>
<path d="M152.834 39.1127L144.174 49.8203L144.971 50.4648L153.631 39.7572L152.834 39.1127Z" fill="#FAFAFA"/>
<path d="M208.785 52.9316H174.086V53.8956H208.785V52.9316Z" fill="#7895FF"/>
<path d="M208.785 56.9668H174.086V57.9308H208.785V56.9668Z" fill="#7895FF"/>
<path d="M208.785 60.998H174.086V61.962H208.785V60.998Z" fill="#7895FF"/>
<path d="M208.785 65.0332H174.086V65.9972H208.785V65.0332Z" fill="#7895FF"/>
<path d="M259.704 149.879H225.004V151.332H259.704V149.879Z" fill="#7895FF"/>
<path d="M259.704 153.912H225.004V155.365H259.704V153.912Z" fill="#7895FF"/>
<path d="M259.704 157.945H225.004V159.398H259.704V157.945Z" fill="#7895FF"/>
<path d="M259.704 161.98H225.004V163.433H259.704V161.98Z" fill="#7895FF"/>
<path d="M84.1767 36.3652C94.0493 36.3652 102.053 28.3618 102.053 18.4892C102.053 8.61661 94.0493 0.613281 84.1767 0.613281C74.3041 0.613281 66.3008 8.61661 66.3008 18.4892C66.3008 28.3618 74.3041 36.3652 84.1767 36.3652Z" fill="#7895FF"/>
<path d="M93.202 7.21002C93.202 7.0129 93.1237 6.82386 92.9843 6.68448C92.8449 6.5451 92.6559 6.4668 92.4588 6.4668H77.3814C77.1843 6.4668 76.9952 6.5451 76.8559 6.68448C76.7165 6.82386 76.6382 7.0129 76.6382 7.21002V7.47947C76.6382 7.67659 76.7165 7.86563 76.8559 8.00501C76.9952 8.14439 77.1843 8.22269 77.3814 8.22269H82.8978C83.9295 8.22404 84.9357 8.54388 85.7788 9.13851C86.6219 9.73314 87.2608 10.5736 87.6084 11.545C87.65 11.6579 87.6639 11.7792 87.6487 11.8986C87.6336 12.018 87.5899 12.132 87.5214 12.231C87.4529 12.33 87.3615 12.411 87.2551 12.4672C87.1486 12.5234 87.0302 12.5531 86.9098 12.5539H77.3814C77.1843 12.5539 76.9953 12.6322 76.8559 12.7716C76.7165 12.9109 76.6382 13.1 76.6382 13.2971V13.5665C76.6382 13.7636 76.7165 13.9527 76.8559 14.0921C76.9953 14.2314 77.1843 14.3097 77.3814 14.3097H86.7413C86.868 14.3104 86.9925 14.3431 87.1031 14.4049C87.2137 14.4667 87.3068 14.5556 87.3738 14.6632C87.4407 14.7707 87.4792 14.8935 87.4858 15.0201C87.4924 15.1466 87.4667 15.2727 87.4113 15.3867C87.0035 16.238 86.3635 16.9567 85.5649 17.46C84.7663 17.9633 83.8418 18.2306 82.8978 18.2312H78.2594C78.0622 18.2312 77.8732 18.3095 77.7338 18.4489C77.5944 18.5883 77.5161 18.7773 77.5161 18.9744V19.73C77.5161 19.893 77.5697 20.0515 77.6686 20.181L86.2397 31.4067C86.3593 31.5633 86.5362 31.6661 86.7315 31.6923C86.9269 31.7185 87.1246 31.6661 87.2813 31.5465L87.4954 31.3831C87.5731 31.3239 87.6382 31.2499 87.6873 31.1655C87.7363 31.0811 87.7682 30.9879 87.7812 30.8911C87.7942 30.7943 87.788 30.696 87.7629 30.6016C87.7379 30.5073 87.6945 30.4188 87.6353 30.3412L80.6406 21.1814C80.5565 21.0713 80.5049 20.9398 80.4915 20.8019C80.4782 20.664 80.5037 20.5251 80.5651 20.4008C80.6265 20.2766 80.7215 20.1721 80.8392 20.099C80.9569 20.0259 81.0927 19.9871 81.2313 19.9871H83.9326C84 19.9872 84.0671 19.979 84.1324 19.9627C85.4038 19.6906 86.5746 19.0705 87.5142 18.1717C88.4537 17.273 89.1251 16.1308 89.4534 14.8728C89.4985 14.7088 89.5967 14.5646 89.7328 14.4626C89.8688 14.3607 90.0349 14.3069 90.2048 14.3098H92.4588C92.6559 14.3098 92.8449 14.2315 92.9843 14.0921C93.1237 13.9527 93.202 13.7637 93.202 13.5665V13.2971C93.202 13.1 93.1237 12.9109 92.9843 12.7716C92.8449 12.6322 92.6559 12.5539 92.4588 12.5539H90.2715C90.1025 12.5567 89.9379 12.5007 89.8057 12.3954C89.6735 12.2902 89.5819 12.1423 89.5467 11.977C89.2984 10.6372 88.6471 9.40504 87.6798 8.44518C87.6012 8.36657 87.5163 8.29694 87.4345 8.22271H92.4588C92.6559 8.22271 92.845 8.14441 92.9843 8.00503C93.1237 7.86564 93.202 7.6766 93.202 7.47949L93.202 7.21002Z" fill="#6C7FD8"/>
<path d="M180.822 188.89C189.723 188.89 196.939 181.674 196.939 172.773C196.939 163.872 189.723 156.656 180.822 156.656C171.921 156.656 164.706 163.872 164.706 172.773C164.706 181.674 171.921 188.89 180.822 188.89Z" fill="#7895FF"/>
<path d="M177.103 180.839H177.089C176.888 180.837 176.689 180.794 176.504 180.713C176.32 180.631 176.154 180.514 176.017 180.366L170.676 174.644C170.543 174.502 170.44 174.334 170.371 174.151C170.303 173.968 170.271 173.774 170.278 173.579C170.284 173.384 170.33 173.192 170.41 173.014C170.491 172.837 170.606 172.677 170.749 172.544C170.892 172.411 171.059 172.307 171.242 172.238C171.425 172.17 171.619 172.138 171.814 172.145C172.009 172.152 172.201 172.197 172.379 172.278C172.556 172.359 172.716 172.474 172.85 172.616L177.125 177.197L188.816 165.156C188.952 165.015 189.114 164.903 189.294 164.825C189.473 164.748 189.666 164.706 189.861 164.703C190.057 164.7 190.251 164.736 190.432 164.808C190.614 164.88 190.78 164.987 190.92 165.123C191.06 165.26 191.172 165.422 191.249 165.602C191.327 165.781 191.368 165.974 191.37 166.169C191.373 166.365 191.337 166.559 191.265 166.74C191.192 166.922 191.085 167.087 190.948 167.227L178.17 180.388C178.031 180.531 177.866 180.644 177.682 180.722C177.499 180.799 177.302 180.839 177.103 180.839V180.839Z" fill="#4F66D0"/>
<path d="M237.151 54.3714C246.651 54.3714 254.351 46.6706 254.351 37.1711C254.351 27.6716 246.651 19.9707 237.151 19.9707C227.652 19.9707 219.951 27.6716 219.951 37.1711C219.951 46.6706 227.652 54.3714 237.151 54.3714Z" fill="#7895FF"/>
<path d="M243.891 35.1489H242.542V32.4513C242.541 31.0225 241.972 29.6529 240.961 28.6432C239.95 27.6335 238.58 27.0664 237.151 27.0664C235.723 27.0664 234.352 27.6335 233.341 28.6432C232.331 29.6529 231.762 31.0225 231.76 32.4513V35.1489H230.411C230.234 35.1486 230.059 35.1832 229.895 35.2509C229.731 35.3185 229.582 35.4179 229.457 35.5432C229.331 35.6685 229.232 35.8173 229.164 35.9811C229.097 36.1449 229.062 36.3205 229.063 36.4977V45.9353C229.062 46.1124 229.097 46.2877 229.165 46.4512C229.232 46.6147 229.332 46.7633 229.457 46.8883C229.583 47.0132 229.731 47.1122 229.895 47.1794C230.059 47.2467 230.234 47.2809 230.411 47.28H243.891C244.068 47.2809 244.244 47.2467 244.407 47.1794C244.571 47.1122 244.72 47.0132 244.845 46.8883C244.971 46.7633 245.07 46.6147 245.138 46.4512C245.206 46.2877 245.24 46.1124 245.24 45.9353V36.4977C245.24 36.3205 245.206 36.1449 245.138 35.9811C245.071 35.8173 244.971 35.6685 244.846 35.5432C244.721 35.4179 244.572 35.3185 244.408 35.2509C244.244 35.1832 244.069 35.1486 243.891 35.1489V35.1489ZM237.151 42.5612C236.752 42.5612 236.361 42.4427 236.028 42.2206C235.696 41.9985 235.437 41.6828 235.284 41.3135C235.131 40.9442 235.091 40.5378 235.169 40.1457C235.247 39.7537 235.439 39.3935 235.722 39.1109C236.005 38.8282 236.365 38.6357 236.757 38.5577C237.149 38.4797 237.555 38.5197 237.925 38.6727C238.294 38.8257 238.61 39.0848 238.832 39.4171C239.054 39.7495 239.173 40.1403 239.173 40.54C239.173 40.8055 239.12 41.0683 239.019 41.3135C238.917 41.5588 238.768 41.7816 238.581 41.9693C238.393 42.157 238.17 42.3059 237.925 42.4074C237.68 42.509 237.417 42.5612 237.151 42.5612H237.151ZM239.849 35.1489H234.454V32.4513C234.454 31.7358 234.738 31.0496 235.244 30.5437C235.75 30.0378 236.436 29.7536 237.151 29.7536C237.867 29.7536 238.553 30.0378 239.059 30.5437C239.565 31.0496 239.849 31.7358 239.849 32.4513V35.1489Z" fill="#6C7FD8"/>
<path d="M337.225 65.9577C337.225 65.9577 335.31 61.5134 346.129 62.685C356.948 63.8565 356.272 67.7232 354.016 84.1602C354.016 84.1602 337.655 91.6083 337.225 65.9577Z" fill="#1E1D22"/>
<path d="M340.059 89.8723L341.207 101.611L357.411 106.144L354.703 90.0881L354.016 84.1596C354.016 84.1596 344.265 84.4189 348.944 78.9987C350.698 76.9668 350.43 72.5403 347.574 74.9287C347.574 74.9287 343.748 76.3745 343.413 72.946C343.079 69.5177 343.909 68.103 343.909 68.103C343.909 68.103 339.238 67.8305 337.225 65.957L335.504 68.0639C335.114 68.5411 334.831 69.0957 334.672 69.6911C334.513 70.2864 334.483 70.9087 334.584 71.5165L334.713 72.295L330.857 76.2389C330.701 76.3979 330.609 76.6089 330.599 76.8315C330.59 77.054 330.663 77.2721 330.805 77.4439C331.016 77.6997 331.303 78.0688 331.691 78.601C331.966 79.0113 332.151 79.4758 332.231 79.9632C332.312 80.4507 332.287 80.9497 332.159 81.4268L336.399 81.4164C336.083 82.3478 335.516 83.1738 334.76 83.8031C333.628 84.6147 331.873 84.6628 331.871 84.9306C331.861 87.0647 332.727 91.2978 340.059 89.8723Z" fill="#F9977A"/>
<path d="M339.657 72.7053C339.532 72.7258 339.404 72.7004 339.296 72.6337C339.189 72.5671 339.109 72.4638 339.072 72.3428C338.528 70.5835 335.779 69.5707 334.766 69.3291C334.631 69.2968 334.514 69.2121 334.441 69.0937C334.368 68.9752 334.345 68.8327 334.378 68.6974C334.41 68.5622 334.495 68.4453 334.613 68.3725C334.732 68.2997 334.874 68.277 335.009 68.3093C335.182 68.3507 339.244 69.3482 340.073 72.0334C340.114 72.1662 340.101 72.3099 340.036 72.4328C339.971 72.5557 339.86 72.6478 339.727 72.6888C339.704 72.696 339.681 72.7015 339.657 72.7053V72.7053Z" fill="#1E1D22"/>
<path d="M345.353 86.1758C343.887 88.6147 340.059 89.8732 340.059 89.8732L340.78 97.2473C342.784 94.2748 345.353 86.1758 345.353 86.1758Z" fill="#DD765E"/>
<path d="M336.399 74.0523C336.633 74.0442 336.855 73.9454 337.018 73.7767C337.181 73.6081 337.272 73.3827 337.272 73.1482C337.272 72.9137 337.181 72.6884 337.018 72.5197C336.855 72.351 336.633 72.2522 336.399 72.2441C336.164 72.2522 335.942 72.351 335.779 72.5197C335.616 72.6884 335.525 72.9137 335.525 73.1482C335.525 73.3827 335.616 73.6081 335.779 73.7767C335.942 73.9454 336.164 74.0442 336.399 74.0523Z" fill="#1E1D22"/>
<path d="M322.352 144.585L317.311 140.703C316.594 140.15 315.738 139.808 314.838 139.713C313.262 139.548 310.728 139.203 309.619 138.621C308.543 138.056 308 138.547 308.55 139.631C308.873 140.269 310.012 141.109 312.995 142.104L310.399 142.768C310.015 142.866 309.615 142.884 309.224 142.819C308.832 142.755 308.459 142.61 308.126 142.394L305.269 140.534C305.092 140.419 304.879 140.372 304.67 140.402C304.46 140.431 304.269 140.536 304.131 140.695L304.13 140.696C304.05 140.788 303.991 140.897 303.955 141.014C303.92 141.131 303.909 141.255 303.924 141.376C303.94 141.498 303.98 141.615 304.044 141.72C304.107 141.825 304.192 141.915 304.292 141.985L309.45 145.577C309.45 145.577 308.954 149.831 312.924 150.752C316.894 151.674 322.352 150.043 322.352 150.043V144.585Z" fill="#F9977A"/>
<path d="M306.699 158.942L323.846 157.854L306.197 132.848L289.435 133.988L306.699 158.942Z" fill="#7895FF"/>
<path d="M323.924 150.32L315.002 142.491C315.002 142.491 310.198 141.015 307.432 139.872C306.661 139.567 305.814 139.514 305.011 139.721C304.208 139.929 303.492 140.385 302.965 141.025C301.93 142.264 301.967 143.515 304.845 145.485C309.149 148.431 311.343 149.517 312.639 149.906C312.851 149.97 313.523 150.225 314.173 150.477C315.119 150.843 316.137 150.988 317.147 150.901L323.924 150.32ZM304.822 105.137L299.113 102.33C298.3 101.931 297.615 101.314 297.133 100.548C296.288 99.2078 294.859 97.0863 293.847 96.3486C292.865 95.6328 293.065 94.9289 294.28 94.9432C294.995 94.9516 296.253 95.6019 298.462 97.8385L297.911 95.2167C297.83 94.8286 297.669 94.4617 297.438 94.1392C297.208 93.8167 296.912 93.5455 296.572 93.3429L293.641 91.6007C293.46 91.4927 293.323 91.3226 293.257 91.1218C293.192 90.921 293.201 90.7032 293.283 90.5086L293.283 90.5083C293.331 90.3955 293.402 90.2939 293.491 90.2103C293.581 90.1266 293.687 90.0626 293.803 90.0226C293.918 89.9826 294.041 89.9673 294.163 89.9778C294.285 89.9884 294.404 90.0244 294.511 90.0837L300.013 93.124C300.013 93.124 303.609 90.7996 306.19 93.9539C308.77 97.1082 309.719 102.726 309.719 102.726L304.822 105.137Z" fill="#F9977A"/>
<path d="M312.416 143.804C311.74 143.697 311.076 143.527 310.432 143.297C309.788 143.076 309.159 142.816 308.548 142.519C307.934 142.22 307.342 141.877 306.778 141.492C306.202 141.112 305.684 140.652 305.239 140.125L308.874 141.852C310.094 142.428 311.277 143.081 312.416 143.804V143.804ZM311.272 145.448C310.527 145.364 309.793 145.207 309.079 144.979C308.364 144.76 307.665 144.49 306.989 144.17C306.306 143.85 305.657 143.461 305.052 143.009C304.421 142.575 303.907 141.993 303.554 141.314C304.111 141.784 304.72 142.19 305.369 142.523C306.005 142.864 306.648 143.196 307.309 143.5C308.619 144.136 309.957 144.72 311.272 145.448ZM309.841 146.722C309.214 146.678 308.593 146.563 307.991 146.378C307.391 146.202 306.804 145.982 306.237 145.719C305.079 145.212 304.047 144.455 303.215 143.503C303.8 143.753 304.347 144.019 304.899 144.278L306.552 145.047C307.65 145.57 308.754 146.075 309.841 146.722ZM302.096 94.6279C301.645 94.5883 301.215 94.4206 300.856 94.1445C300.493 93.8816 300.203 93.5309 300.013 93.1252C300.253 93.1037 300.495 93.1406 300.719 93.2327C300.925 93.3111 301.119 93.4168 301.297 93.5471C301.672 93.813 301.952 94.1917 302.096 94.6279V94.6279ZM303.368 94.0015C302.948 93.8787 302.562 93.6593 302.241 93.3607C302.095 93.227 301.958 93.0842 301.829 92.9332C301.694 92.7817 301.591 92.6217 301.412 92.4362C301.529 92.388 301.655 92.3643 301.782 92.3665C301.909 92.3687 302.033 92.3969 302.149 92.4493C302.365 92.5315 302.564 92.6528 302.736 92.807C303.09 93.1116 303.315 93.5381 303.368 94.0015V94.0015ZM304.922 93.9476C304.683 93.7368 304.486 93.4825 304.342 93.1984C304.289 93.0851 304.241 92.9809 304.197 92.8662C304.136 92.7171 304.057 92.5755 303.963 92.4443C304.055 92.3874 304.161 92.3561 304.27 92.3537C304.378 92.3512 304.485 92.3777 304.58 92.4303C304.763 92.526 304.911 92.6765 305.004 92.8606C305.088 93.0288 305.128 93.2159 305.119 93.4039C305.114 93.6018 305.045 93.7927 304.922 93.9476V93.9476Z" fill="#DD765E"/>
<path d="M353.919 280.392C353.919 280.392 356.4 298.725 355.065 299.318C353.73 299.911 320 302.509 326.078 299.293L336.183 294.606C339.793 292.932 342.671 289.192 342.636 285.213L343.156 279.619L353.919 280.392Z" fill="#D87E6A"/>
<path d="M362.735 160.928L363.032 163.67C363.869 171.425 362.54 179.261 359.191 186.307V198.642L357.198 280.1C357.182 280.793 356.894 281.453 356.398 281.937C355.901 282.422 355.235 282.693 354.541 282.693H340.564C339.91 282.693 339.28 282.452 338.792 282.017C338.305 281.581 337.995 280.981 337.922 280.332L332.354 230.815C331.5 223.219 331.207 215.571 331.477 207.932L333.137 160.928L362.735 160.928Z" fill="#7895FF"/>
<path d="M311.009 99.9735C317.631 103.507 326.723 114.989 326.723 114.989L338.188 103.979L340.76 97.5502L348.754 95.37C350.712 94.8359 353.393 93.2094 354.476 91.4931C354.73 91.0716 354.811 90.5685 354.703 90.0884C354.698 90.0508 354.692 90.0129 354.685 89.9746L359.502 99.9363C364.004 107.424 365.37 116.059 364.721 124.772L362.736 160.927C362.736 160.927 330.41 164.896 331.828 160.927L332.085 154.545L328.567 154.121L322.89 152.965C322.348 152.854 321.866 152.546 321.538 152.1C321.211 151.654 321.061 151.102 321.117 150.552L321.704 144.851C321.759 144.316 322.006 143.818 322.399 143.451C322.792 143.083 323.305 142.87 323.842 142.851L329.843 142.637L332.82 140.226L333.138 130.152L331.379 130.454C328.95 130.781 326.478 130.489 324.192 129.605C321.906 128.721 319.881 127.273 318.304 125.397L304.861 107.394C304.64 107.102 304.495 106.76 304.439 106.398C304.383 106.036 304.418 105.666 304.541 105.321C305.323 103.109 306.853 101.239 308.866 100.034C309.188 99.8412 309.554 99.7343 309.929 99.7237C310.305 99.7131 310.676 99.7991 311.009 99.9735Z" fill="#6C7FD8"/>
<path d="M356.987 95.7539C355.883 96.4656 354.773 97.1629 353.64 97.8207C352.513 98.4877 351.386 99.1544 350.242 99.7905C347.957 101.067 345.653 102.31 343.318 103.496L343.002 103.656L342.883 103.343L341.784 100.463C341.599 99.9831 341.437 99.4943 341.262 99.0106C341.088 98.5266 340.918 98.0407 340.76 97.5501C341.003 98.0047 341.235 98.4639 341.463 98.9252C341.69 99.3867 341.929 99.8431 342.146 100.309L343.457 103.099L343.022 102.947C345.293 101.644 347.594 100.397 349.915 99.1848C351.073 98.5762 352.249 97.9984 353.424 97.4209C354.595 96.8342 355.787 96.2868 356.987 95.7539ZM332.82 140.226C333.918 139.755 335.05 139.364 336.205 139.057C337.355 138.733 338.511 138.434 339.675 138.16C342.001 137.609 344.338 137.111 346.687 136.665L346.553 136.829L345.934 122.576C345.788 120.188 345.817 117.793 346.023 115.41C346.184 112.99 346.809 110.624 347.863 108.439C348.418 107.33 349.212 106.357 350.187 105.59C351.193 104.837 352.382 104.37 353.631 104.236C354.871 104.109 356.124 104.266 357.294 104.696C358.464 105.125 359.521 105.816 360.384 106.715C361.244 107.611 361.906 108.678 362.328 109.845C362.758 110.97 363.114 112.123 363.392 113.295C363.938 115.63 364.298 118.005 364.466 120.397C364.784 125.165 364.68 129.952 364.154 134.702C363.923 137.075 363.599 139.438 363.225 141.791C363.11 143.016 362.732 144.203 362.118 145.27C361.504 146.337 360.668 147.259 359.666 147.975C359.167 148.331 358.627 148.629 358.06 148.863L356.392 149.515C355.278 149.938 354.16 150.349 353.034 150.736C350.782 151.514 348.509 152.234 346.202 152.831C343.899 153.442 341.563 153.922 339.205 154.266C336.85 154.629 334.461 154.723 332.085 154.545C334.459 154.669 336.84 154.521 339.181 154.106C341.521 153.71 343.837 153.18 346.117 152.519C348.398 151.863 350.655 151.132 352.889 150.326C354.006 149.926 355.114 149.502 356.218 149.067C357.327 148.7 358.384 148.188 359.36 147.547C360.293 146.864 361.067 145.987 361.629 144.977C362.191 143.967 362.527 142.848 362.615 141.695C362.964 139.349 363.287 136.998 363.504 134.637C364.005 129.926 364.089 125.18 363.754 120.454C363.578 118.101 363.216 115.766 362.67 113.471C362.404 112.327 362.063 111.203 361.648 110.105C361.266 109.026 360.66 108.04 359.872 107.211C359.086 106.384 358.123 105.748 357.054 105.35C355.985 104.953 354.84 104.804 353.706 104.915C352.577 105.03 351.501 105.447 350.589 106.123C349.688 106.828 348.954 107.724 348.439 108.746C347.419 110.855 346.807 113.138 346.634 115.474C346.402 117.828 346.343 120.196 346.458 122.558L346.876 136.818L346.88 136.959L346.742 136.983C344.391 137.378 342.047 137.823 339.71 138.317C338.544 138.566 337.382 138.839 336.226 139.135C335.066 139.416 333.927 139.781 332.82 140.226ZM338.188 103.979C337.85 105.05 337.467 106.104 337.108 107.167C336.724 108.223 336.339 109.267 336.016 110.333C335.356 112.455 334.84 114.62 334.473 116.813C334.128 119.013 333.895 121.23 333.775 123.455L333.496 126.805C333.375 127.921 333.281 129.038 333.138 130.152C333.112 129.029 333.135 127.908 333.132 126.786L333.204 123.425C333.224 122.304 333.265 121.186 333.338 120.055C333.422 118.929 333.561 117.806 333.741 116.69C334.113 114.46 334.695 112.27 335.478 110.149C336.273 108.031 337.231 106.012 338.188 103.979ZM326.723 114.989C326.503 116.346 326.26 117.637 326.11 118.948C326.019 119.6 325.977 120.255 325.933 120.914C325.886 121.576 325.901 122.235 325.873 122.929C325.594 122.295 325.418 121.62 325.354 120.93C325.281 120.241 325.288 119.546 325.373 118.859C325.457 118.174 325.61 117.499 325.828 116.845C326.038 116.188 326.34 115.563 326.723 114.989V114.989Z" fill="#065082"/>
<path d="M353.662 142.494C352.578 141.391 351.541 140.319 350.415 139.345C349.855 138.859 349.269 138.403 348.662 137.977C348.034 137.557 347.384 137.172 346.714 136.823C348.279 137.03 349.741 137.715 350.901 138.784C351.486 139.298 352.019 139.87 352.491 140.49C352.968 141.103 353.362 141.777 353.662 142.494V142.494ZM360.609 150.717C360.434 151.506 360.129 152.261 359.708 152.951C359.291 153.654 358.775 154.294 358.176 154.851C357.562 155.406 356.848 155.841 356.072 156.132C355.301 156.412 354.474 156.5 353.662 156.389C354.416 156.213 355.148 155.948 355.84 155.6C356.503 155.243 357.12 154.806 357.678 154.3C358.796 153.228 359.78 152.025 360.609 150.717V150.717ZM359.758 155.254C359.452 155.978 358.983 156.622 358.388 157.136C357.799 157.663 357.131 158.095 356.408 158.415C355.683 158.722 354.918 158.924 354.137 159.015C353.75 159.059 353.361 159.078 352.972 159.07C352.585 159.049 352.2 159.006 351.819 158.941C352.197 158.84 352.572 158.787 352.94 158.707C353.305 158.609 353.674 158.555 354.029 158.445C354.74 158.259 355.435 158.021 356.111 157.734C357.472 157.145 358.71 156.304 359.758 155.254ZM329.842 142.636C330.222 144.161 330.464 145.718 330.567 147.287C330.703 148.853 330.698 150.428 330.551 151.993C330.17 150.468 329.928 148.912 329.827 147.343C329.692 145.776 329.697 144.201 329.842 142.636ZM313.908 101.875C313.036 103.256 312.047 104.56 310.953 105.771C309.883 107.006 308.708 108.144 307.441 109.175C308.312 107.793 309.301 106.49 310.397 105.279C311.468 104.046 312.643 102.907 313.908 101.875V101.875Z" fill="#065082"/>
<path d="M346.715 162.418C346.471 166.802 346.169 171.18 345.893 175.562L344.975 188.697C344.664 193.075 344.361 197.454 344.006 201.829L342.98 214.956L342.98 214.87L343.618 223.341L344.201 231.816L345.365 248.766L346.41 265.725C346.731 271.379 347.059 277.034 347.328 282.692C346.78 277.054 346.291 271.411 345.795 265.769L344.389 248.837L343.102 231.896L342.459 223.425L341.871 214.951L341.868 214.906L341.872 214.865L342.99 201.746C343.35 197.372 343.761 193.002 344.165 188.631L345.392 175.521C345.83 171.153 346.243 166.783 346.715 162.418ZM359.191 186.306C359.034 186.805 358.775 187.266 358.431 187.66C358.101 188.06 357.708 188.403 357.268 188.678C356.804 188.975 356.274 189.155 355.725 189.2C355.438 189.242 355.146 189.202 354.881 189.085C354.617 188.968 354.391 188.779 354.229 188.539C354.677 188.595 355.131 188.515 355.534 188.31C355.919 188.12 356.294 187.911 356.658 187.684C357.038 187.448 357.425 187.202 357.843 186.97C358.273 186.711 358.724 186.489 359.191 186.306V186.306Z" fill="#E6952A"/>
<path d="M338.188 162.691C338.443 164.784 338.576 166.877 338.66 168.969C338.702 170.015 338.728 171.062 338.749 172.108C338.753 173.154 338.782 174.201 338.764 175.247L338.645 174.896C339.751 176.357 340.838 177.831 341.879 179.341C342.923 180.848 343.943 182.375 344.877 183.967C343.581 182.652 342.371 181.272 341.186 179.873C339.997 178.476 338.855 177.044 337.731 175.598L337.615 175.449L337.612 175.247C337.594 174.201 337.623 173.154 337.627 172.108C337.648 171.062 337.674 170.015 337.717 168.969C337.801 166.877 337.933 164.784 338.188 162.691ZM354.934 219.015C355.244 220.204 355.303 221.444 355.107 222.657C354.937 223.883 354.578 225.074 354.04 226.188C353.505 227.301 352.804 228.327 351.961 229.23C351.548 229.681 351.101 230.098 350.623 230.48C350.139 230.848 349.632 231.183 349.104 231.484C349.458 230.98 349.864 230.55 350.217 230.076C350.562 229.595 350.942 229.154 351.252 228.66L351.74 227.943L352.181 227.2C352.477 226.71 352.747 226.204 352.989 225.684C353.492 224.651 353.904 223.576 354.219 222.47C354.55 221.34 354.788 220.184 354.934 219.015V219.015ZM355.47 227.738C355.143 230.071 354.133 232.256 352.567 234.016C351.756 234.921 350.739 235.618 349.603 236.05C348.462 236.436 347.225 236.429 346.088 236.032C347.184 235.968 348.257 235.689 349.246 235.213C350.171 234.691 351.004 234.019 351.71 233.225C352.449 232.42 353.115 231.551 353.701 230.629C354.308 229.699 354.885 228.736 355.47 227.738Z" fill="#E6952A"/>
<path d="M300.16 120.803H299.865V129.575H300.16V120.803Z" fill="#7CA1B1"/>
<path d="M313.193 136.959L313.075 136.688L322.293 132.711L322.41 132.983L313.193 136.959Z" fill="#7CA1B1"/>
<path d="M312.281 120.747L308.688 129.518L308.962 129.629L312.554 120.859L312.281 120.747Z" fill="#7CA1B1"/>
<path d="M324.64 301.534C322.974 299.232 324.172 296.417 327.347 295.137L340.703 289.754C340.941 289.668 341.198 289.644 341.447 289.686C341.697 289.728 341.932 289.834 342.128 289.994L346.891 294.492C347.098 294.659 347.347 294.767 347.611 294.805C347.875 294.842 348.144 294.807 348.39 294.703L354.003 292.348C354.765 292.029 355.731 292.418 355.73 293.044L355.706 300.7C355.704 301.145 355.192 301.503 354.562 301.501L324.645 301.541L324.64 301.534Z" fill="#6C7FD8"/>
</svg>
