<svg width="424" height="297" viewBox="0 0 424 297" fill="none" xmlns="http://www.w3.org/2000/svg">
<g clip-path="url(#clip0)">
<path d="M41.0643 157.267C34.7197 114.989 20.5448 111.303 9.6449 89.9632C-0.278307 70.5518 -8.28087 38.7959 19.7241 16.0932C63.2253 -19.2003 116.576 16.9139 116.576 16.9139C116.576 16.9139 201.116 65.3399 215.89 67.8022C230.664 70.2645 266.778 94.8879 311.921 65.3399C357.064 35.7918 395.64 38.2542 407.952 60.4152C420.264 82.5762 392.357 146.597 385.791 159.729C379.225 172.862 389.074 213.901 399.744 230.316C410.414 246.732 444.066 297.62 371.838 295.979C299.609 294.337 82.924 296.799 82.924 296.799C82.924 296.799 5.13885 295.347 18.9033 219.646C30.3942 156.446 43.5266 173.683 41.0643 157.267Z" fill="#F8F8FF"/>
<path d="M68.9712 151.521C78.0373 151.521 85.3868 144.171 85.3868 135.105C85.3868 126.039 78.0373 118.689 68.9712 118.689C59.9052 118.689 52.5557 126.039 52.5557 135.105C52.5557 144.171 59.9052 151.521 68.9712 151.521Z" fill="#BAC5F4"/>
<path d="M41.475 166.296C47.5946 166.296 52.5555 161.335 52.5555 155.215C52.5555 149.096 47.5946 144.135 41.475 144.135C35.3554 144.135 30.3945 149.096 30.3945 155.215C30.3945 161.335 35.3554 166.296 41.475 166.296Z" fill="#BAC5F4"/>
<path d="M43.1168 135.927C46.5165 135.927 49.2726 133.171 49.2726 129.771C49.2726 126.371 46.5165 123.615 43.1168 123.615C39.717 123.615 36.9609 126.371 36.9609 129.771C36.9609 133.171 39.717 135.927 43.1168 135.927Z" fill="#BAC5F4"/>
<path d="M407.132 262.325C416.198 262.325 423.547 254.976 423.547 245.91C423.547 236.844 416.198 229.494 407.132 229.494C398.066 229.494 390.716 236.844 390.716 245.91C390.716 254.976 398.066 262.325 407.132 262.325Z" fill="#BAC5F4"/>
<path d="M12.7476 57.9523C16.1474 57.9523 18.9035 55.1962 18.9035 51.7965C18.9035 48.3967 16.1474 45.6406 12.7476 45.6406C9.34786 45.6406 6.5918 48.3967 6.5918 51.7965C6.5918 55.1962 9.34786 57.9523 12.7476 57.9523Z" fill="#BAC5F4"/>
<path d="M115.345 273.816C131.437 273.816 144.483 260.771 144.483 244.679C144.483 228.586 131.437 215.541 115.345 215.541C99.2529 215.541 86.2075 228.586 86.2075 244.679C86.2075 260.771 99.2529 273.816 115.345 273.816Z" fill="#E1E6FB"/>
<path d="M307.818 287.77C318.697 287.77 327.516 278.951 327.516 268.072C327.516 257.192 318.697 248.373 307.818 248.373C296.939 248.373 288.119 257.192 288.119 268.072C288.119 278.951 296.939 287.77 307.818 287.77Z" fill="#E1E6FB"/>
<path d="M383.329 176.965C389.222 176.965 393.999 172.188 393.999 166.295C393.999 160.402 389.222 155.625 383.329 155.625C377.436 155.625 372.659 160.402 372.659 166.295C372.659 172.188 377.436 176.965 383.329 176.965Z" fill="#E1E6FB"/>
<path d="M303.714 91.6043C315.5 91.6043 325.054 82.0499 325.054 70.2641C325.054 58.4782 315.5 48.9238 303.714 48.9238C291.928 48.9238 282.374 58.4782 282.374 70.2641C282.374 82.0499 291.928 91.6043 303.714 91.6043Z" fill="#E1E6FB"/>
<path d="M107.958 23.4804C113.624 23.4804 118.218 18.887 118.218 13.2207C118.218 7.55437 113.624 2.96094 107.958 2.96094C102.292 2.96094 97.6982 7.55437 97.6982 13.2207C97.6982 18.887 102.292 23.4804 107.958 23.4804Z" fill="#E1E6FB"/>
<path d="M75.1269 227.853C80.7932 227.853 85.3866 223.26 85.3866 217.594C85.3866 211.927 80.7932 207.334 75.1269 207.334C69.4606 207.334 64.8672 211.927 64.8672 217.594C64.8672 223.26 69.4606 227.853 75.1269 227.853Z" fill="#E1E6FB"/>
<path d="M405.9 108.84C411.567 108.84 416.16 104.246 416.16 98.58C416.16 92.9137 411.567 88.3203 405.9 88.3203C400.234 88.3203 395.641 92.9137 395.641 98.58C395.641 104.246 400.234 108.84 405.9 108.84Z" fill="#BAC5F4"/>
<path d="M389.485 283.667C395.604 283.667 400.565 278.706 400.565 272.586C400.565 266.467 395.604 261.506 389.485 261.506C383.365 261.506 378.404 266.467 378.404 272.586C378.404 278.706 383.365 283.667 389.485 283.667Z" fill="#BAC5F4"/>
<path d="M414.108 284.487C417.508 284.487 420.264 281.731 420.264 278.332C420.264 274.932 417.508 272.176 414.108 272.176C410.709 272.176 407.953 274.932 407.953 278.332C407.953 281.731 410.709 284.487 414.108 284.487Z" fill="#BAC5F4"/>
</g>
<defs>
<clipPath id="clip0">
<rect width="423.095" height="296.186" fill="white" transform="translate(0.452637 0.613281)"/>
</clipPath>
</defs>
</svg>
